<?xml version="1.0" encoding="UTF-8"?>
<svg xmlns="http://www.w3.org/2000/svg" xmlns:xlink="http://www.w3.org/1999/xlink" width="504" height="360" viewBox="0 0 504 360">
<defs>
<clipPath id="clip-0">
<path clip-rule="nonzero" d="M 7.199219 32.398438 L 496.800781 32.398438 L 496.800781 352.796875 L 7.199219 352.796875 Z M 7.199219 32.398438 "/>
</clipPath>
</defs>
<rect x="-50.4" y="-36" width="604.8" height="432" fill="rgb(100%, 100%, 100%)" fill-opacity="1"/>
<g clip-path="url(#clip-0)">
<path fill-rule="nonzero" fill="rgb(100%, 100%, 100%)" fill-opacity="1" stroke-width="0.75" stroke-linecap="round" stroke-linejoin="round" stroke="rgb(100%, 100%, 100%)" stroke-opacity="1" stroke-miterlimit="10" d="M 7.199219 352.800781 L 496.800781 352.800781 L 496.800781 32.402344 L 7.199219 32.402344 Z M 7.199219 352.800781 "/>
<path fill-rule="nonzero" fill="rgb(98.431373%, 98.431373%, 98.431373%)" fill-opacity="1" d="M 7.199219 352.800781 L 496.800781 352.800781 L 496.800781 32.402344 L 7.199219 32.402344 Z M 7.199219 352.800781 "/>
</g>
<path fill-rule="evenodd" fill="rgb(74.901961%, 74.901961%, 74.901961%)" fill-opacity="1" stroke-width="0.525" stroke-linecap="round" stroke-linejoin="round" stroke="rgb(31.372549%, 5.882353%, 15.294118%)" stroke-opacity="1" stroke-miterlimit="10" d="M 174.785156 65.566406 L 154.855469 65.566406 L 154.855469 60.585938 L 124.96875 60.585938 L 124.96875 65.566406 L 110.023438 65.566406 L 110.023438 70.546875 L 105.039062 70.546875 L 105.039062 75.53125 L 60.207031 75.53125 L 60.207031 70.546875 L 25.332031 70.546875 L 25.332031 110.402344 L 30.316406 110.402344 L 30.316406 135.3125 L 35.296875 135.3125 L 35.296875 155.238281 L 40.277344 155.238281 L 40.277344 165.199219 L 45.261719 165.199219 L 45.261719 175.164062 L 50.242188 175.164062 L 50.242188 185.128906 L 55.222656 185.128906 L 55.222656 195.089844 L 60.207031 195.089844 L 60.207031 200.074219 L 65.1875 200.074219 L 65.1875 205.054688 L 70.167969 205.054688 L 70.167969 210.035156 L 75.148438 210.035156 L 75.148438 215.019531 L 80.132812 215.019531 L 80.132812 220 L 85.113281 220 L 85.113281 224.980469 L 90.09375 224.980469 L 90.09375 229.960938 L 95.078125 229.960938 L 95.078125 234.945312 L 100.058594 234.945312 L 100.058594 239.925781 L 105.039062 239.925781 L 105.039062 244.90625 L 110.023438 244.90625 L 110.023438 249.890625 L 115.003906 249.890625 L 115.003906 254.871094 L 119.984375 254.871094 L 119.984375 259.851562 L 124.96875 259.851562 L 124.96875 269.816406 L 129.949219 269.816406 L 129.949219 274.796875 L 134.929688 274.796875 L 134.929688 279.78125 L 139.910156 279.78125 L 139.910156 284.761719 L 144.894531 284.761719 L 144.894531 289.742188 L 149.875 289.742188 L 149.875 294.722656 L 159.839844 294.722656 L 159.839844 299.707031 L 164.820312 299.707031 L 164.820312 304.6875 L 174.785156 304.6875 L 174.785156 309.667969 L 179.765625 309.667969 L 179.765625 314.652344 L 189.730469 314.652344 L 189.730469 319.632812 L 199.691406 319.632812 L 199.691406 324.613281 L 388.996094 324.613281 L 388.996094 319.632812 L 428.851562 319.632812 L 428.851562 314.652344 L 453.757812 314.652344 L 453.757812 309.667969 L 463.722656 309.667969 L 463.722656 304.6875 L 468.703125 304.6875 L 468.703125 299.707031 L 473.683594 299.707031 L 473.683594 289.742188 L 478.667969 289.742188 L 478.667969 249.890625 L 473.683594 249.890625 L 473.683594 234.945312 L 468.703125 234.945312 L 468.703125 224.980469 L 463.722656 224.980469 L 463.722656 220 L 458.738281 220 L 458.738281 210.035156 L 453.757812 210.035156 L 453.757812 205.054688 L 448.777344 205.054688 L 448.777344 200.074219 L 443.792969 200.074219 L 443.792969 195.089844 L 438.8125 195.089844 L 438.8125 190.109375 L 433.832031 190.109375 L 433.832031 185.128906 L 428.851562 185.128906 L 428.851562 180.144531 L 423.867188 180.144531 L 423.867188 175.164062 L 418.886719 175.164062 L 418.886719 170.183594 L 413.90625 170.183594 L 413.90625 165.199219 L 408.921875 165.199219 L 408.921875 160.21875 L 398.960938 160.21875 L 398.960938 155.238281 L 393.976562 155.238281 L 393.976562 150.253906 L 388.996094 150.253906 L 388.996094 140.292969 L 384.015625 140.292969 L 384.015625 135.3125 L 379.03125 135.3125 L 379.03125 130.328125 L 374.050781 130.328125 L 374.050781 125.347656 L 369.070312 125.347656 L 369.070312 120.367188 L 359.105469 120.367188 L 359.105469 115.382812 L 354.125 115.382812 L 354.125 110.402344 L 349.144531 110.402344 L 349.144531 105.421875 L 339.179688 105.421875 L 339.179688 100.4375 L 334.199219 100.4375 L 334.199219 95.457031 L 319.253906 95.457031 L 319.253906 85.492188 L 314.269531 85.492188 L 314.269531 80.511719 L 309.289062 80.511719 L 309.289062 75.53125 L 299.324219 75.53125 L 299.324219 70.546875 L 294.34375 70.546875 L 294.34375 75.53125 L 284.382812 75.53125 L 284.382812 80.511719 L 264.453125 80.511719 L 264.453125 75.53125 L 249.507812 75.53125 L 249.507812 70.546875 L 209.65625 70.546875 L 209.65625 65.566406 L 204.675781 65.566406 L 204.675781 70.546875 L 174.785156 70.546875 Z M 234.5625 79.996094 L 229.582031 79.996094 L 224.601562 78.4375 L 219.617188 79.523438 L 214.636719 79.53125 L 213.378906 80.511719 L 209.65625 82.324219 L 204.675781 84.34375 L 199.691406 84.34375 L 198.542969 85.492188 L 194.710938 87.832031 L 189.730469 87.96875 L 184.746094 88.003906 L 179.765625 88.617188 L 174.785156 88.617188 L 169.800781 89.136719 L 167.199219 90.476562 L 164.820312 91.675781 L 160.660156 95.457031 L 159.839844 99.394531 L 159.410156 100.4375 L 157.941406 105.421875 L 157.390625 110.402344 L 156.433594 115.382812 L 154.855469 118.570312 L 153.574219 120.367188 L 152.195312 125.347656 L 152.152344 130.328125 L 149.875 134.417969 L 144.894531 135.222656 L 139.910156 135.222656 L 139.863281 135.3125 L 139.910156 135.523438 L 144.894531 135.523438 L 148.304688 140.292969 L 144.894531 141.945312 L 139.910156 146.929688 L 137.886719 150.253906 L 134.929688 155.105469 L 129.949219 160.085938 L 129.898438 160.21875 L 129.949219 160.296875 L 134.855469 165.199219 L 134.929688 165.277344 L 139.835938 170.183594 L 139.910156 170.335938 L 149.875 180.300781 L 154.855469 182.527344 L 157.457031 185.128906 L 159.839844 187.507812 L 164.820312 187.507812 L 167.421875 190.109375 L 169.800781 191.207031 L 173.6875 195.089844 L 174.785156 196.1875 L 184.746094 196.1875 L 189.730469 198.875 L 193.109375 200.074219 L 198.089844 205.054688 L 199.691406 205.46875 L 204.675781 206.246094 L 209.65625 206.246094 L 213.445312 210.035156 L 214.636719 210.71875 L 229.582031 210.71875 L 231.523438 210.035156 L 234.5625 206.996094 L 239.546875 208.601562 L 244.527344 208.601562 L 249.507812 208.527344 L 254.492188 206.878906 L 257.648438 210.035156 L 259.472656 210.945312 L 264.453125 211.859375 L 274.417969 211.859375 L 279.398438 212.914062 L 284.382812 214.195312 L 289.363281 214.640625 L 294.34375 214.640625 L 294.804688 215.019531 L 299.324219 217.378906 L 304.308594 217.363281 L 309.289062 216.46875 L 314.269531 217.234375 L 319.253906 216.867188 L 324.234375 218.148438 L 334.199219 218.148438 L 342.3125 210.035156 L 344.160156 209.3125 L 345.351562 210.035156 L 349.144531 213.824219 L 359.105469 213.824219 L 360.933594 210.035156 L 359.105469 206.589844 L 354.125 201.609375 L 352.878906 200.074219 L 354.125 197.707031 L 355.230469 195.089844 L 356.214844 190.109375 L 357.503906 185.128906 L 359.105469 181.074219 L 360.777344 180.144531 L 362.285156 175.164062 L 363.113281 170.183594 L 362.707031 165.199219 L 361.804688 160.21875 L 364.089844 155.542969 L 364.230469 155.238281 L 364.089844 154.96875 L 361.960938 150.253906 L 359.105469 147.402344 L 357.523438 145.273438 L 354.125 141.160156 L 353.378906 140.292969 L 350.324219 135.3125 L 349.144531 133.621094 L 346.980469 130.328125 L 344.160156 127.511719 L 342 125.347656 L 339.179688 121.789062 L 338.15625 120.367188 L 334.199219 117.035156 L 331.898438 115.382812 L 329.214844 112.703125 L 324.808594 110.402344 L 324.234375 109.828125 L 319.824219 105.421875 L 319.253906 104.847656 L 314.84375 100.4375 L 314.269531 99.867188 L 309.289062 99.445312 L 304.308594 98.511719 L 299.324219 97.628906 L 294.34375 96.035156 L 291.847656 95.457031 L 289.363281 92.972656 L 284.382812 92.972656 L 279.398438 91.574219 L 274.417969 91.574219 L 269.4375 91.25 L 266.9375 90.476562 L 264.453125 89.390625 L 262.53125 90.476562 L 259.472656 91.300781 L 255.308594 90.476562 L 254.492188 90.078125 L 249.507812 86.308594 L 244.527344 86.199219 L 240.945312 85.492188 L 239.546875 84.09375 L 235.960938 80.511719 Z M 234.5625 79.996094 "/>
<path fill-rule="evenodd" fill="rgb(74.901961%, 74.901961%, 74.901961%)" fill-opacity="1" stroke-width="0.525" stroke-linecap="round" stroke-linejoin="round" stroke="rgb(31.372549%, 5.882353%, 15.294118%)" stroke-opacity="1" stroke-miterlimit="10" d="M 234.5625 79.996094 L 229.582031 79.996094 L 224.601562 78.4375 L 219.617188 79.523438 L 214.636719 79.53125 L 213.378906 80.511719 L 209.65625 82.324219 L 204.675781 84.34375 L 199.691406 84.34375 L 198.542969 85.492188 L 194.710938 87.832031 L 189.730469 87.96875 L 184.746094 88.003906 L 179.765625 88.617188 L 174.785156 88.617188 L 169.800781 89.136719 L 167.199219 90.476562 L 164.820312 91.675781 L 160.660156 95.457031 L 159.839844 99.394531 L 159.410156 100.4375 L 157.941406 105.421875 L 157.390625 110.402344 L 156.433594 115.382812 L 154.855469 118.570312 L 153.574219 120.367188 L 152.195312 125.347656 L 152.152344 130.328125 L 149.875 134.417969 L 144.894531 135.222656 L 139.910156 135.222656 L 139.863281 135.3125 L 139.910156 135.523438 L 144.894531 135.523438 L 148.304688 140.292969 L 144.894531 141.945312 L 139.910156 146.929688 L 137.886719 150.253906 L 134.929688 155.105469 L 129.949219 160.085938 L 129.898438 160.21875 L 129.949219 160.296875 L 134.855469 165.199219 L 134.929688 165.277344 L 139.835938 170.183594 L 139.910156 170.335938 L 149.875 180.300781 L 154.855469 182.527344 L 157.457031 185.128906 L 159.839844 187.507812 L 164.820312 187.507812 L 167.421875 190.109375 L 169.800781 191.207031 L 173.6875 195.089844 L 174.785156 196.1875 L 184.746094 196.1875 L 189.730469 198.875 L 193.109375 200.074219 L 198.089844 205.054688 L 199.691406 205.46875 L 204.675781 206.246094 L 209.65625 206.246094 L 213.445312 210.035156 L 214.636719 210.71875 L 229.582031 210.71875 L 231.523438 210.035156 L 234.5625 206.996094 L 239.546875 208.601562 L 244.527344 208.601562 L 249.507812 208.527344 L 254.492188 206.878906 L 257.648438 210.035156 L 259.472656 210.945312 L 264.453125 211.859375 L 274.417969 211.859375 L 279.398438 212.914062 L 284.382812 214.195312 L 289.363281 214.640625 L 294.34375 214.640625 L 294.804688 215.019531 L 299.324219 217.378906 L 304.308594 217.363281 L 309.289062 216.46875 L 314.269531 217.234375 L 319.253906 216.867188 L 324.234375 218.148438 L 334.199219 218.148438 L 342.3125 210.035156 L 344.160156 209.3125 L 345.351562 210.035156 L 349.144531 213.824219 L 359.105469 213.824219 L 360.933594 210.035156 L 359.105469 206.589844 L 354.125 201.609375 L 352.878906 200.074219 L 354.125 197.707031 L 355.230469 195.089844 L 356.214844 190.109375 L 357.503906 185.128906 L 359.105469 181.074219 L 360.777344 180.144531 L 362.285156 175.164062 L 363.113281 170.183594 L 362.707031 165.199219 L 361.804688 160.21875 L 364.089844 155.542969 L 364.230469 155.238281 L 364.089844 154.96875 L 361.960938 150.253906 L 359.105469 147.402344 L 357.523438 145.273438 L 354.125 141.160156 L 353.378906 140.292969 L 350.324219 135.3125 L 349.144531 133.621094 L 346.980469 130.328125 L 344.160156 127.511719 L 342 125.347656 L 339.179688 121.789062 L 338.15625 120.367188 L 334.199219 117.035156 L 331.898438 115.382812 L 329.214844 112.703125 L 324.808594 110.402344 L 324.234375 109.828125 L 319.824219 105.421875 L 319.253906 104.847656 L 314.84375 100.4375 L 314.269531 99.867188 L 309.289062 99.445312 L 304.308594 98.511719 L 299.324219 97.628906 L 294.34375 96.035156 L 291.847656 95.457031 L 289.363281 92.972656 L 284.382812 92.972656 L 279.398438 91.574219 L 274.417969 91.574219 L 269.4375 91.25 L 266.9375 90.476562 L 264.453125 89.390625 L 262.53125 90.476562 L 259.472656 91.300781 L 255.308594 90.476562 L 254.492188 90.078125 L 249.507812 86.308594 L 244.527344 86.199219 L 240.945312 85.492188 L 239.546875 84.09375 L 235.960938 80.511719 Z M 219.617188 84 L 214.636719 84.839844 L 213.660156 85.492188 L 209.65625 87.417969 L 206.691406 90.476562 L 204.675781 93.28125 L 199.691406 93.753906 L 194.710938 93.753906 L 189.730469 95.371094 L 189.511719 95.457031 L 184.746094 96.492188 L 179.765625 98.242188 L 174.785156 98.449219 L 169.800781 100.429688 L 169.785156 100.4375 L 164.835938 105.421875 L 164.820312 105.441406 L 161.980469 110.402344 L 161.441406 115.382812 L 162.242188 120.367188 L 163.9375 125.347656 L 162.570312 130.328125 L 164.820312 134.804688 L 165.105469 135.3125 L 165.484375 140.292969 L 169.800781 144.160156 L 171.917969 145.273438 L 174.785156 147.164062 L 176.253906 150.253906 L 179.632812 155.238281 L 179.765625 155.34375 L 182.851562 160.21875 L 182.851562 165.199219 L 184.746094 168.515625 L 188.90625 170.183594 L 189.730469 171.003906 L 193.890625 175.164062 L 194.710938 175.621094 L 199.691406 175.984375 L 203.851562 180.144531 L 204.675781 180.601562 L 209.65625 180.769531 L 214.636719 182.523438 L 219.617188 182.75 L 223.539062 185.128906 L 224.601562 186.1875 L 229.582031 186.1875 L 233.503906 190.109375 L 234.5625 191.171875 L 239.546875 191.882812 L 244.527344 191.882812 L 249.507812 190.863281 L 251.054688 190.109375 L 254.492188 189.277344 L 256.855469 190.109375 L 259.472656 191.378906 L 264.453125 191.378906 L 269.4375 195 L 269.582031 195.089844 L 274.417969 196.125 L 279.398438 196.167969 L 284.382812 196.476562 L 289.363281 198.667969 L 294.34375 198.921875 L 296.816406 200.074219 L 299.324219 202.128906 L 304.308594 202.582031 L 309.289062 203.578125 L 312.378906 205.054688 L 314.269531 205.671875 L 315.804688 205.054688 L 319.253906 204.027344 L 324.234375 203.859375 L 329.214844 200.335938 L 334.199219 200.707031 L 334.496094 200.074219 L 339.179688 196.945312 L 340.800781 195.089844 L 344.160156 192.027344 L 347.542969 190.109375 L 349.144531 185.777344 L 349.308594 185.128906 L 349.144531 184.738281 L 348.367188 180.144531 L 348.84375 175.164062 L 348.832031 170.183594 L 349.144531 167.601562 L 350.328125 165.199219 L 353.34375 160.21875 L 353.144531 155.238281 L 351.335938 150.253906 L 349.144531 145.867188 L 348.96875 145.273438 L 345.457031 140.292969 L 344.160156 136.765625 L 343.664062 135.3125 L 340.996094 130.328125 L 339.179688 128.511719 L 336.609375 125.347656 L 334.199219 122.273438 L 330.246094 120.367188 L 329.214844 119.753906 L 324.234375 118.699219 L 320.707031 115.382812 L 319.253906 113.910156 L 314.269531 112.5 L 312.171875 110.402344 L 309.289062 109.128906 L 304.308594 108.074219 L 300.964844 105.421875 L 299.324219 104.382812 L 294.34375 102.625 L 290.777344 100.4375 L 289.363281 100.125 L 286.773438 100.4375 L 284.382812 101.125 L 279.398438 101.125 L 274.417969 100.644531 L 273.378906 100.4375 L 269.4375 98.707031 L 264.453125 97.050781 L 259.472656 95.71875 L 258.738281 95.457031 L 254.492188 93.441406 L 249.507812 90.738281 L 247.640625 90.476562 L 244.527344 90.070312 L 239.546875 89.164062 L 234.5625 87.808594 L 229.582031 86.84375 L 224.601562 85.515625 L 224.53125 85.492188 Z M 219.617188 84 "/>
<path fill-rule="evenodd" fill="rgb(74.901961%, 74.901961%, 74.901961%)" fill-opacity="1" stroke-width="0.525" stroke-linecap="round" stroke-linejoin="round" stroke="rgb(31.372549%, 5.882353%, 15.294118%)" stroke-opacity="1" stroke-miterlimit="10" d="M 214.636719 84.839844 L 213.660156 85.492188 L 209.65625 87.417969 L 206.691406 90.476562 L 204.675781 93.28125 L 199.691406 93.753906 L 194.710938 93.753906 L 189.730469 95.371094 L 189.511719 95.457031 L 184.746094 96.492188 L 179.765625 98.242188 L 174.785156 98.449219 L 169.800781 100.429688 L 169.785156 100.4375 L 164.835938 105.421875 L 164.820312 105.441406 L 161.980469 110.402344 L 161.441406 115.382812 L 162.242188 120.367188 L 163.9375 125.347656 L 162.570312 130.328125 L 164.820312 134.804688 L 165.105469 135.3125 L 165.484375 140.292969 L 169.800781 144.160156 L 171.917969 145.273438 L 174.785156 147.164062 L 176.253906 150.253906 L 179.632812 155.238281 L 179.765625 155.34375 L 182.851562 160.21875 L 182.851562 165.199219 L 184.746094 168.515625 L 188.90625 170.183594 L 189.730469 171.003906 L 193.890625 175.164062 L 194.710938 175.621094 L 199.691406 175.984375 L 203.851562 180.144531 L 204.675781 180.601562 L 209.65625 180.769531 L 214.636719 182.523438 L 219.617188 182.75 L 223.539062 185.128906 L 224.601562 186.1875 L 229.582031 186.1875 L 233.503906 190.109375 L 234.5625 191.171875 L 239.546875 191.882812 L 244.527344 191.882812 L 249.507812 190.863281 L 251.054688 190.109375 L 254.492188 189.277344 L 256.855469 190.109375 L 259.472656 191.378906 L 264.453125 191.378906 L 269.4375 195 L 269.582031 195.089844 L 274.417969 196.125 L 279.398438 196.167969 L 284.382812 196.476562 L 289.363281 198.667969 L 294.34375 198.921875 L 296.816406 200.074219 L 299.324219 202.128906 L 304.308594 202.582031 L 309.289062 203.578125 L 312.378906 205.054688 L 314.269531 205.671875 L 315.804688 205.054688 L 319.253906 204.027344 L 324.234375 203.859375 L 329.214844 200.335938 L 334.199219 200.707031 L 334.496094 200.074219 L 339.179688 196.945312 L 340.800781 195.089844 L 344.160156 192.027344 L 347.542969 190.109375 L 349.144531 185.777344 L 349.308594 185.128906 L 349.144531 184.738281 L 348.367188 180.144531 L 348.84375 175.164062 L 348.832031 170.183594 L 349.144531 167.601562 L 350.328125 165.199219 L 353.34375 160.21875 L 353.144531 155.238281 L 351.335938 150.253906 L 349.144531 145.867188 L 348.96875 145.273438 L 345.457031 140.292969 L 344.160156 136.765625 L 343.664062 135.3125 L 340.996094 130.328125 L 339.179688 128.511719 L 336.609375 125.347656 L 334.199219 122.273438 L 330.246094 120.367188 L 329.214844 119.753906 L 324.234375 118.699219 L 320.707031 115.382812 L 319.253906 113.910156 L 314.269531 112.5 L 312.171875 110.402344 L 309.289062 109.128906 L 304.308594 108.074219 L 300.964844 105.421875 L 299.324219 104.382812 L 294.34375 102.625 L 290.777344 100.4375 L 289.363281 100.125 L 286.773438 100.4375 L 284.382812 101.125 L 279.398438 101.125 L 274.417969 100.644531 L 273.378906 100.4375 L 269.4375 98.707031 L 264.453125 97.050781 L 259.472656 95.71875 L 258.738281 95.457031 L 254.492188 93.441406 L 249.507812 90.738281 L 247.640625 90.476562 L 244.527344 90.070312 L 239.546875 89.164062 L 234.5625 87.808594 L 229.582031 86.84375 L 224.601562 85.515625 L 224.53125 85.492188 L 219.617188 84 Z M 224.601562 89.324219 L 219.617188 88.199219 L 214.636719 88.523438 L 210.402344 90.476562 L 209.65625 90.78125 L 205.96875 95.457031 L 204.675781 98.367188 L 199.691406 99.699219 L 194.710938 98.203125 L 189.730469 99.378906 L 185.292969 100.4375 L 184.746094 100.53125 L 179.765625 101.769531 L 174.785156 102.410156 L 169.800781 104.558594 L 168.945312 105.421875 L 164.953125 110.402344 L 164.820312 110.726562 L 163.644531 115.382812 L 164.820312 118.417969 L 165.492188 120.367188 L 166.347656 125.347656 L 167.367188 130.328125 L 169.800781 133.316406 L 171.15625 135.3125 L 174.785156 140.265625 L 174.804688 140.292969 L 178.789062 145.273438 L 179.765625 146.527344 L 184.085938 150.253906 L 184.746094 151.390625 L 187.636719 155.238281 L 189.730469 157.328125 L 192.605469 160.21875 L 194.710938 163.667969 L 196.246094 165.199219 L 199.691406 167.25 L 202.625 170.183594 L 204.675781 171.34375 L 209.65625 171.636719 L 214.636719 173.179688 L 219.617188 174.382812 L 222.257812 175.164062 L 224.601562 176.539062 L 229.582031 176.679688 L 234.5625 177.214844 L 239.546875 178.792969 L 242.402344 180.144531 L 244.527344 181.394531 L 249.507812 183.746094 L 254.375 185.128906 L 254.492188 185.15625 L 259.472656 186.203125 L 264.453125 187.800781 L 269.4375 187.953125 L 274.417969 189.980469 L 274.96875 190.109375 L 279.398438 191.359375 L 284.382812 192.648438 L 289.363281 194.757812 L 290.804688 195.089844 L 294.34375 195.738281 L 299.324219 196.753906 L 304.308594 197.878906 L 309.289062 197.84375 L 314.269531 198.59375 L 319.253906 199.449219 L 324.234375 198.273438 L 327.933594 195.089844 L 329.214844 194.742188 L 334.199219 192.332031 L 336.421875 190.109375 L 339.179688 188.9375 L 342.71875 185.128906 L 344.160156 181.277344 L 344.582031 180.144531 L 346.089844 175.164062 L 345.980469 170.183594 L 346.597656 165.199219 L 347.511719 160.21875 L 346.085938 155.238281 L 344.160156 150.378906 L 344.128906 150.253906 L 342.402344 145.273438 L 339.179688 141.878906 L 337.675781 140.292969 L 334.648438 135.3125 L 334.199219 134.65625 L 331.824219 130.328125 L 329.214844 127.945312 L 326.101562 125.347656 L 324.234375 123.90625 L 319.253906 122.6875 L 314.269531 120.371094 L 314.253906 120.367188 L 309.289062 118.539062 L 304.308594 116.886719 L 300.847656 115.382812 L 299.324219 114.308594 L 294.34375 113.363281 L 289.390625 110.402344 L 289.363281 110.378906 L 284.382812 108.609375 L 279.398438 107.652344 L 275.917969 105.421875 L 274.417969 104.371094 L 269.4375 103.035156 L 264.453125 100.851562 L 263.792969 100.4375 L 259.472656 98.023438 L 254.492188 96.242188 L 250.886719 95.457031 L 249.507812 94.90625 L 244.527344 92.832031 L 239.546875 91.921875 L 234.5625 91.800781 L 229.582031 90.644531 L 228.761719 90.476562 Z M 224.601562 89.324219 "/>
<path fill-rule="evenodd" fill="rgb(74.901961%, 74.901961%, 74.901961%)" fill-opacity="1" stroke-width="0.525" stroke-linecap="round" stroke-linejoin="round" stroke="rgb(31.372549%, 5.882353%, 15.294118%)" stroke-opacity="1" stroke-miterlimit="10" d="M 224.601562 89.324219 L 219.617188 88.199219 L 214.636719 88.523438 L 210.402344 90.476562 L 209.65625 90.78125 L 205.96875 95.457031 L 204.675781 98.367188 L 199.691406 99.699219 L 194.710938 98.203125 L 189.730469 99.378906 L 185.292969 100.4375 L 184.746094 100.53125 L 179.765625 101.769531 L 174.785156 102.410156 L 169.800781 104.558594 L 168.945312 105.421875 L 164.953125 110.402344 L 164.820312 110.726562 L 163.644531 115.382812 L 164.820312 118.417969 L 165.492188 120.367188 L 166.347656 125.347656 L 167.367188 130.328125 L 169.800781 133.316406 L 171.15625 135.3125 L 174.785156 140.265625 L 174.804688 140.292969 L 178.789062 145.273438 L 179.765625 146.527344 L 184.085938 150.253906 L 184.746094 151.390625 L 187.636719 155.238281 L 189.730469 157.328125 L 192.605469 160.21875 L 194.710938 163.667969 L 196.246094 165.199219 L 199.691406 167.25 L 202.625 170.183594 L 204.675781 171.34375 L 209.65625 171.636719 L 214.636719 173.179688 L 219.617188 174.382812 L 222.257812 175.164062 L 224.601562 176.539062 L 229.582031 176.679688 L 234.5625 177.214844 L 239.546875 178.792969 L 242.402344 180.144531 L 244.527344 181.394531 L 249.507812 183.746094 L 254.375 185.128906 L 254.492188 185.15625 L 259.472656 186.203125 L 264.453125 187.800781 L 269.4375 187.953125 L 274.417969 189.980469 L 274.96875 190.109375 L 279.398438 191.359375 L 284.382812 192.648438 L 289.363281 194.757812 L 290.804688 195.089844 L 294.34375 195.738281 L 299.324219 196.753906 L 304.308594 197.878906 L 309.289062 197.84375 L 314.269531 198.59375 L 319.253906 199.449219 L 324.234375 198.273438 L 327.933594 195.089844 L 329.214844 194.742188 L 334.199219 192.332031 L 336.421875 190.109375 L 339.179688 188.9375 L 342.71875 185.128906 L 344.160156 181.277344 L 344.582031 180.144531 L 346.089844 175.164062 L 345.980469 170.183594 L 346.597656 165.199219 L 347.511719 160.21875 L 346.085938 155.238281 L 344.160156 150.378906 L 344.128906 150.253906 L 342.402344 145.273438 L 339.179688 141.878906 L 337.675781 140.292969 L 334.648438 135.3125 L 334.199219 134.65625 L 331.824219 130.328125 L 329.214844 127.945312 L 326.101562 125.347656 L 324.234375 123.90625 L 319.253906 122.6875 L 314.269531 120.371094 L 314.253906 120.367188 L 309.289062 118.539062 L 304.308594 116.886719 L 300.847656 115.382812 L 299.324219 114.308594 L 294.34375 113.363281 L 289.390625 110.402344 L 289.363281 110.378906 L 284.382812 108.609375 L 279.398438 107.652344 L 275.917969 105.421875 L 274.417969 104.371094 L 269.4375 103.035156 L 264.453125 100.851562 L 263.792969 100.4375 L 259.472656 98.023438 L 254.492188 96.242188 L 250.886719 95.457031 L 249.507812 94.90625 L 244.527344 92.832031 L 239.546875 91.921875 L 234.5625 91.800781 L 229.582031 90.644531 L 228.761719 90.476562 Z M 239.546875 94.082031 L 234.5625 94.617188 L 229.582031 93.484375 L 224.601562 92.46875 L 219.617188 91.875 L 214.636719 91.964844 L 209.65625 93.914062 L 208.4375 95.457031 L 205.988281 100.4375 L 204.675781 101.285156 L 199.691406 102.363281 L 194.710938 102.816406 L 189.730469 102.4375 L 184.746094 103.355469 L 179.765625 104.421875 L 175.949219 105.421875 L 174.785156 105.757812 L 169.800781 108.835938 L 168.511719 110.402344 L 166.039062 115.382812 L 167.453125 120.367188 L 168.054688 125.347656 L 169.800781 129.113281 L 170.648438 130.328125 L 174.183594 135.3125 L 174.785156 136.132812 L 178.0625 140.292969 L 179.765625 142.296875 L 183.707031 145.273438 L 184.746094 146.199219 L 189.730469 149.5 L 191.515625 150.253906 L 194.710938 153.230469 L 197.445312 155.238281 L 199.691406 156.507812 L 204.675781 159.707031 L 205.226562 160.21875 L 209.65625 164.285156 L 211.152344 165.199219 L 214.636719 168.683594 L 217.546875 170.183594 L 219.617188 170.957031 L 224.601562 172.066406 L 229.582031 173.171875 L 234.5625 174.019531 L 239.546875 175.035156 L 244.527344 174.921875 L 245.125 175.164062 L 249.507812 178.867188 L 251.472656 180.144531 L 254.492188 181.625 L 259.472656 182.570312 L 264.453125 184.753906 L 268.722656 185.128906 L 269.4375 185.175781 L 274.417969 186.371094 L 279.398438 188 L 284.382812 189.761719 L 286.394531 190.109375 L 289.363281 190.726562 L 294.34375 191.820312 L 299.324219 192.722656 L 304.308594 194.738281 L 309.289062 194.816406 L 310.863281 195.089844 L 314.269531 196.210938 L 319.253906 196 L 321.171875 195.089844 L 324.234375 194.503906 L 329.214844 193.003906 L 332.621094 190.109375 L 334.199219 188.703125 L 338.996094 185.128906 L 339.179688 184.75 L 341.683594 180.144531 L 343.199219 175.164062 L 343.21875 170.183594 L 343.726562 165.199219 L 343.191406 160.21875 L 341.652344 155.238281 L 340.1875 150.253906 L 339.179688 148.523438 L 337.449219 145.273438 L 334.199219 141.917969 L 332.179688 140.292969 L 329.214844 136.328125 L 327.699219 135.3125 L 324.234375 132.46875 L 322.265625 130.328125 L 319.253906 128.453125 L 315.480469 125.347656 L 314.269531 124.414062 L 309.289062 123.15625 L 304.308594 120.589844 L 303.550781 120.367188 L 299.324219 119.058594 L 294.34375 117.984375 L 289.363281 115.957031 L 286.96875 115.382812 L 284.382812 114.140625 L 279.398438 111.105469 L 277.488281 110.402344 L 274.417969 108.890625 L 269.4375 106.453125 L 268.136719 105.421875 L 264.453125 103.425781 L 259.664062 100.4375 L 259.472656 100.332031 L 254.492188 98.523438 L 249.507812 97.039062 L 244.527344 95.46875 L 244.488281 95.457031 Z M 239.546875 94.082031 "/>
<path fill-rule="evenodd" fill="rgb(74.901961%, 74.901961%, 74.901961%)" fill-opacity="1" stroke-width="0.525" stroke-linecap="round" stroke-linejoin="round" stroke="rgb(31.372549%, 5.882353%, 15.294118%)" stroke-opacity="1" stroke-miterlimit="10" d="M 239.546875 94.082031 L 234.5625 94.617188 L 229.582031 93.484375 L 224.601562 92.46875 L 219.617188 91.875 L 214.636719 91.964844 L 209.65625 93.914062 L 208.4375 95.457031 L 205.988281 100.4375 L 204.675781 101.285156 L 199.691406 102.363281 L 194.710938 102.816406 L 189.730469 102.4375 L 184.746094 103.355469 L 179.765625 104.421875 L 175.949219 105.421875 L 174.785156 105.757812 L 169.800781 108.835938 L 168.511719 110.402344 L 166.039062 115.382812 L 167.453125 120.367188 L 168.054688 125.347656 L 169.800781 129.113281 L 170.648438 130.328125 L 174.183594 135.3125 L 174.785156 136.132812 L 178.0625 140.292969 L 179.765625 142.296875 L 183.707031 145.273438 L 184.746094 146.199219 L 189.730469 149.5 L 191.515625 150.253906 L 194.710938 153.230469 L 197.445312 155.238281 L 199.691406 156.507812 L 204.675781 159.707031 L 205.226562 160.21875 L 209.65625 164.285156 L 211.152344 165.199219 L 214.636719 168.683594 L 217.546875 170.183594 L 219.617188 170.957031 L 224.601562 172.066406 L 229.582031 173.171875 L 234.5625 174.019531 L 239.546875 175.035156 L 244.527344 174.921875 L 245.125 175.164062 L 249.507812 178.867188 L 251.472656 180.144531 L 254.492188 181.625 L 259.472656 182.570312 L 264.453125 184.753906 L 268.722656 185.128906 L 269.4375 185.175781 L 274.417969 186.371094 L 279.398438 188 L 284.382812 189.761719 L 286.394531 190.109375 L 289.363281 190.726562 L 294.34375 191.820312 L 299.324219 192.722656 L 304.308594 194.738281 L 309.289062 194.816406 L 310.863281 195.089844 L 314.269531 196.210938 L 319.253906 196 L 321.171875 195.089844 L 324.234375 194.503906 L 329.214844 193.003906 L 332.621094 190.109375 L 334.199219 188.703125 L 338.996094 185.128906 L 339.179688 184.75 L 341.683594 180.144531 L 343.199219 175.164062 L 343.21875 170.183594 L 343.726562 165.199219 L 343.191406 160.21875 L 341.652344 155.238281 L 340.1875 150.253906 L 339.179688 148.523438 L 337.449219 145.273438 L 334.199219 141.917969 L 332.179688 140.292969 L 329.214844 136.328125 L 327.699219 135.3125 L 324.234375 132.46875 L 322.265625 130.328125 L 319.253906 128.453125 L 315.480469 125.347656 L 314.269531 124.414062 L 309.289062 123.15625 L 304.308594 120.589844 L 303.550781 120.367188 L 299.324219 119.058594 L 294.34375 117.984375 L 289.363281 115.957031 L 286.96875 115.382812 L 284.382812 114.140625 L 279.398438 111.105469 L 277.488281 110.402344 L 274.417969 108.890625 L 269.4375 106.453125 L 268.136719 105.421875 L 264.453125 103.425781 L 259.664062 100.4375 L 259.472656 100.332031 L 254.492188 98.523438 L 249.507812 97.039062 L 244.527344 95.46875 L 244.488281 95.457031 Z M 224.601562 95.324219 L 219.617188 94.738281 L 214.636719 95.320312 L 214.261719 95.457031 L 209.65625 97.464844 L 208.082031 100.4375 L 204.675781 102.636719 L 199.691406 104.546875 L 197.507812 105.421875 L 194.710938 106.363281 L 190.5 105.421875 L 189.730469 105.164062 L 188.441406 105.421875 L 184.746094 105.933594 L 179.765625 107.117188 L 174.785156 108.675781 L 172.386719 110.402344 L 169.800781 113.339844 L 168.644531 115.382812 L 169.417969 120.367188 L 169.761719 125.347656 L 169.800781 125.4375 L 173.207031 130.328125 L 174.785156 132.496094 L 177.417969 135.3125 L 179.765625 138.296875 L 182 140.292969 L 184.746094 142.410156 L 187.945312 145.273438 L 189.730469 146.574219 L 194.710938 148.9375 L 196.324219 150.253906 L 199.691406 153.253906 L 202.601562 155.238281 L 204.675781 156.785156 L 208.371094 160.21875 L 209.65625 161.398438 L 214.636719 163.832031 L 216.757812 165.199219 L 219.617188 166.773438 L 224.601562 168.035156 L 228.773438 170.183594 L 229.582031 170.453125 L 234.5625 171.453125 L 239.546875 172.210938 L 244.527344 172.679688 L 249.507812 174.652344 L 251.550781 175.164062 L 254.492188 176.867188 L 259.472656 178.949219 L 262.03125 180.144531 L 264.453125 181.039062 L 269.4375 182.308594 L 274.417969 183.082031 L 279.398438 185.023438 L 279.757812 185.128906 L 284.382812 186.441406 L 289.363281 187.460938 L 294.34375 188.761719 L 299.324219 189.71875 L 300.011719 190.109375 L 304.308594 192.921875 L 309.289062 193.558594 L 314.269531 194.375 L 319.253906 194.050781 L 324.234375 193.105469 L 329.214844 191.265625 L 330.574219 190.109375 L 334.199219 186.875 L 336.542969 185.128906 L 338.855469 180.144531 L 339.179688 178.683594 L 339.976562 175.164062 L 340.621094 170.183594 L 340.617188 165.199219 L 339.179688 161.125 L 338.871094 160.21875 L 337.664062 155.238281 L 335.597656 150.253906 L 334.199219 146.542969 L 333.550781 145.273438 L 329.214844 142.042969 L 325.746094 140.292969 L 324.234375 139.292969 L 319.527344 135.3125 L 319.253906 135.011719 L 314.269531 132.097656 L 310.503906 130.328125 L 309.289062 129.1875 L 305.214844 125.347656 L 304.308594 124.859375 L 299.324219 122.539062 L 294.34375 121.765625 L 291.871094 120.367188 L 289.363281 118.898438 L 284.382812 117.542969 L 280.347656 115.382812 L 279.398438 114.710938 L 274.417969 113.71875 L 269.761719 110.402344 L 269.4375 110.222656 L 264.453125 106.820312 L 262.316406 105.421875 L 259.472656 104.234375 L 254.492188 101.59375 L 253.714844 100.4375 L 249.507812 98.863281 L 244.527344 98.136719 L 239.546875 96.570312 L 234.5625 97.03125 L 229.582031 96.132812 L 225.257812 95.457031 Z M 224.601562 95.324219 "/>
<path fill-rule="evenodd" fill="rgb(74.901961%, 74.901961%, 74.901961%)" fill-opacity="1" stroke-width="0.525" stroke-linecap="round" stroke-linejoin="round" stroke="rgb(31.372549%, 5.882353%, 15.294118%)" stroke-opacity="1" stroke-miterlimit="10" d="M 224.601562 95.324219 L 219.617188 94.738281 L 214.636719 95.320312 L 214.261719 95.457031 L 209.65625 97.464844 L 208.082031 100.4375 L 204.675781 102.636719 L 199.691406 104.546875 L 197.507812 105.421875 L 194.710938 106.363281 L 190.5 105.421875 L 189.730469 105.164062 L 188.441406 105.421875 L 184.746094 105.933594 L 179.765625 107.117188 L 174.785156 108.675781 L 172.386719 110.402344 L 169.800781 113.339844 L 168.644531 115.382812 L 169.417969 120.367188 L 169.761719 125.347656 L 169.800781 125.4375 L 173.207031 130.328125 L 174.785156 132.496094 L 177.417969 135.3125 L 179.765625 138.296875 L 182 140.292969 L 184.746094 142.410156 L 187.945312 145.273438 L 189.730469 146.574219 L 194.710938 148.9375 L 196.324219 150.253906 L 199.691406 153.253906 L 202.601562 155.238281 L 204.675781 156.785156 L 208.371094 160.21875 L 209.65625 161.398438 L 214.636719 163.832031 L 216.757812 165.199219 L 219.617188 166.773438 L 224.601562 168.035156 L 228.773438 170.183594 L 229.582031 170.453125 L 234.5625 171.453125 L 239.546875 172.210938 L 244.527344 172.679688 L 249.507812 174.652344 L 251.550781 175.164062 L 254.492188 176.867188 L 259.472656 178.949219 L 262.03125 180.144531 L 264.453125 181.039062 L 269.4375 182.308594 L 274.417969 183.082031 L 279.398438 185.023438 L 279.757812 185.128906 L 284.382812 186.441406 L 289.363281 187.460938 L 294.34375 188.761719 L 299.324219 189.71875 L 300.011719 190.109375 L 304.308594 192.921875 L 309.289062 193.558594 L 314.269531 194.375 L 319.253906 194.050781 L 324.234375 193.105469 L 329.214844 191.265625 L 330.574219 190.109375 L 334.199219 186.875 L 336.542969 185.128906 L 338.855469 180.144531 L 339.179688 178.683594 L 339.976562 175.164062 L 340.621094 170.183594 L 340.617188 165.199219 L 339.179688 161.125 L 338.871094 160.21875 L 337.664062 155.238281 L 335.597656 150.253906 L 334.199219 146.542969 L 333.550781 145.273438 L 329.214844 142.042969 L 325.746094 140.292969 L 324.234375 139.292969 L 319.527344 135.3125 L 319.253906 135.011719 L 314.269531 132.097656 L 310.503906 130.328125 L 309.289062 129.1875 L 305.214844 125.347656 L 304.308594 124.859375 L 299.324219 122.539062 L 294.34375 121.765625 L 291.871094 120.367188 L 289.363281 118.898438 L 284.382812 117.542969 L 280.347656 115.382812 L 279.398438 114.710938 L 274.417969 113.71875 L 269.761719 110.402344 L 269.4375 110.222656 L 264.453125 106.820312 L 262.316406 105.421875 L 259.472656 104.234375 L 254.492188 101.59375 L 253.714844 100.4375 L 249.507812 98.863281 L 244.527344 98.136719 L 239.546875 96.570312 L 234.5625 97.03125 L 229.582031 96.132812 L 225.257812 95.457031 Z M 239.546875 99.621094 L 234.5625 99.277344 L 229.582031 98.339844 L 224.601562 97.953125 L 219.617188 97.511719 L 214.636719 99.035156 L 211.640625 100.4375 L 209.65625 101.144531 L 204.675781 103.988281 L 201.492188 105.421875 L 199.691406 107.117188 L 194.710938 108.199219 L 189.730469 107.332031 L 184.746094 107.832031 L 179.765625 109.84375 L 178.105469 110.402344 L 174.785156 112.386719 L 172.164062 115.382812 L 171.46875 120.367188 L 172.710938 125.347656 L 174.785156 128.558594 L 176.320312 130.328125 L 179.765625 134.066406 L 180.800781 135.3125 L 184.746094 138.925781 L 186.332031 140.292969 L 189.730469 143.351562 L 192.359375 145.273438 L 194.710938 146.488281 L 199.316406 150.253906 L 199.691406 150.589844 L 204.675781 153.617188 L 208.605469 155.238281 L 209.65625 156.109375 L 214.636719 158.46875 L 219.617188 159.925781 L 220.542969 160.21875 L 224.601562 162.996094 L 227.167969 165.199219 L 229.582031 166.453125 L 234.5625 167.972656 L 239.546875 168.988281 L 243.09375 170.183594 L 244.527344 170.4375 L 249.507812 172.214844 L 254.492188 172.894531 L 259.472656 174.566406 L 262.984375 175.164062 L 264.453125 175.644531 L 269.4375 179.277344 L 274.417969 180 L 274.980469 180.144531 L 279.398438 181.675781 L 284.382812 183.308594 L 289.363281 184.574219 L 290.890625 185.128906 L 294.34375 186.449219 L 299.324219 188.144531 L 302.785156 190.109375 L 304.308594 191.105469 L 309.289062 192.296875 L 314.269531 193.027344 L 319.253906 192.640625 L 324.234375 191.707031 L 328.082031 190.109375 L 329.214844 189.148438 L 334.046875 185.128906 L 334.199219 184.699219 L 335.695312 180.144531 L 337.609375 175.164062 L 338.066406 170.183594 L 338.058594 165.199219 L 335.886719 160.21875 L 334.199219 156.613281 L 333.761719 155.238281 L 331.070312 150.253906 L 329.214844 147.492188 L 328.046875 145.273438 L 324.234375 142.453125 L 320.886719 140.292969 L 319.253906 138.800781 L 314.269531 135.683594 L 313.667969 135.3125 L 309.289062 132.597656 L 305.351562 130.328125 L 304.308594 129.320312 L 299.324219 125.644531 L 298.097656 125.347656 L 294.34375 124.609375 L 289.363281 122.8125 L 284.691406 120.367188 L 284.382812 120.273438 L 279.398438 119.382812 L 274.417969 117.660156 L 269.4375 115.949219 L 268.519531 115.382812 L 264.453125 112.492188 L 259.472656 110.488281 L 259.371094 110.402344 L 254.492188 107.40625 L 250.746094 105.421875 L 249.507812 102.765625 L 244.527344 101.445312 L 242.847656 100.4375 Z M 239.546875 99.621094 "/>
<path fill-rule="evenodd" fill="rgb(74.901961%, 74.901961%, 74.901961%)" fill-opacity="1" stroke-width="0.525" stroke-linecap="round" stroke-linejoin="round" stroke="rgb(31.372549%, 5.882353%, 15.294118%)" stroke-opacity="1" stroke-miterlimit="10" d="M 239.546875 99.621094 L 234.5625 99.277344 L 229.582031 98.339844 L 224.601562 97.953125 L 219.617188 97.511719 L 214.636719 99.035156 L 211.640625 100.4375 L 209.65625 101.144531 L 204.675781 103.988281 L 201.492188 105.421875 L 199.691406 107.117188 L 194.710938 108.199219 L 189.730469 107.332031 L 184.746094 107.832031 L 179.765625 109.84375 L 178.105469 110.402344 L 174.785156 112.386719 L 172.164062 115.382812 L 171.46875 120.367188 L 172.710938 125.347656 L 174.785156 128.558594 L 176.320312 130.328125 L 179.765625 134.066406 L 180.800781 135.3125 L 184.746094 138.925781 L 186.332031 140.292969 L 189.730469 143.351562 L 192.359375 145.273438 L 194.710938 146.488281 L 199.316406 150.253906 L 199.691406 150.589844 L 204.675781 153.617188 L 208.605469 155.238281 L 209.65625 156.109375 L 214.636719 158.46875 L 219.617188 159.925781 L 220.542969 160.21875 L 224.601562 162.996094 L 227.167969 165.199219 L 229.582031 166.453125 L 234.5625 167.972656 L 239.546875 168.988281 L 243.09375 170.183594 L 244.527344 170.4375 L 249.507812 172.214844 L 254.492188 172.894531 L 259.472656 174.566406 L 262.984375 175.164062 L 264.453125 175.644531 L 269.4375 179.277344 L 274.417969 180 L 274.980469 180.144531 L 279.398438 181.675781 L 284.382812 183.308594 L 289.363281 184.574219 L 290.890625 185.128906 L 294.34375 186.449219 L 299.324219 188.144531 L 302.785156 190.109375 L 304.308594 191.105469 L 309.289062 192.296875 L 314.269531 193.027344 L 319.253906 192.640625 L 324.234375 191.707031 L 328.082031 190.109375 L 329.214844 189.148438 L 334.046875 185.128906 L 334.199219 184.699219 L 335.695312 180.144531 L 337.609375 175.164062 L 338.066406 170.183594 L 338.058594 165.199219 L 335.886719 160.21875 L 334.199219 156.613281 L 333.761719 155.238281 L 331.070312 150.253906 L 329.214844 147.492188 L 328.046875 145.273438 L 324.234375 142.453125 L 320.886719 140.292969 L 319.253906 138.800781 L 314.269531 135.683594 L 313.667969 135.3125 L 309.289062 132.597656 L 305.351562 130.328125 L 304.308594 129.320312 L 299.324219 125.644531 L 298.097656 125.347656 L 294.34375 124.609375 L 289.363281 122.8125 L 284.691406 120.367188 L 284.382812 120.273438 L 279.398438 119.382812 L 274.417969 117.660156 L 269.4375 115.949219 L 268.519531 115.382812 L 264.453125 112.492188 L 259.472656 110.488281 L 259.371094 110.402344 L 254.492188 107.40625 L 250.746094 105.421875 L 249.507812 102.765625 L 244.527344 101.445312 L 242.847656 100.4375 Z M 219.617188 100.253906 L 219.132812 100.4375 L 214.636719 102.867188 L 209.65625 103.980469 L 204.675781 105.339844 L 204.492188 105.421875 L 199.691406 109.949219 L 194.710938 110.039062 L 189.730469 109.445312 L 184.746094 109.730469 L 183.210938 110.402344 L 179.765625 113.296875 L 176.777344 115.382812 L 174.785156 117.332031 L 173.546875 120.367188 L 174.785156 123.664062 L 176.011719 125.347656 L 179.765625 129.671875 L 180.480469 130.328125 L 184.421875 135.3125 L 184.746094 135.609375 L 189.730469 139.71875 L 190.65625 140.292969 L 194.710938 142.773438 L 197.171875 145.273438 L 199.691406 147.121094 L 204.675781 150.136719 L 205.011719 150.253906 L 209.65625 151.617188 L 214.636719 153.117188 L 217.027344 155.238281 L 219.617188 156.75 L 224.601562 157.457031 L 228.265625 160.21875 L 229.582031 161.386719 L 234.5625 163.460938 L 239.546875 164.683594 L 241.082031 165.199219 L 244.527344 166.285156 L 249.507812 169.324219 L 254.492188 169.628906 L 255.90625 170.183594 L 259.472656 171.476562 L 264.453125 172.722656 L 268.691406 175.164062 L 269.4375 175.738281 L 274.417969 177.453125 L 279.398438 178.667969 L 283.964844 180.144531 L 284.382812 180.292969 L 289.363281 182.390625 L 294.34375 184.445312 L 295.929688 185.128906 L 299.324219 186.574219 L 304.308594 188.925781 L 306.195312 190.109375 L 309.289062 191.039062 L 314.269531 191.675781 L 319.253906 191.226562 L 324.234375 190.308594 L 324.710938 190.109375 L 329.214844 186.292969 L 330.617188 185.128906 L 333.199219 180.144531 L 334.199219 177.890625 L 335.527344 175.164062 L 335.566406 170.183594 L 335.976562 165.199219 L 334.199219 161.894531 L 333.414062 160.21875 L 331.738281 155.238281 L 329.214844 151.835938 L 328.066406 150.253906 L 324.585938 145.273438 L 324.234375 145.011719 L 319.253906 141.53125 L 317.039062 140.292969 L 314.269531 138.339844 L 309.347656 135.3125 L 309.289062 135.273438 L 304.308594 132.699219 L 300.875 130.328125 L 299.324219 129.117188 L 294.34375 127.738281 L 289.363281 127.050781 L 287.070312 125.347656 L 284.382812 123.511719 L 279.398438 123.773438 L 274.417969 121.265625 L 270.132812 120.367188 L 269.4375 120.214844 L 264.453125 117.296875 L 259.472656 116.039062 L 258.128906 115.382812 L 254.492188 112.425781 L 251.25 110.402344 L 249.507812 109.628906 L 244.527344 109.144531 L 239.546875 107.761719 L 235.476562 105.421875 L 234.5625 104.671875 L 229.582031 101.425781 L 224.601562 100.914062 L 222.476562 100.4375 Z M 219.617188 100.253906 "/>
<path fill-rule="evenodd" fill="rgb(74.901961%, 74.901961%, 74.901961%)" fill-opacity="1" stroke-width="0.525" stroke-linecap="round" stroke-linejoin="round" stroke="rgb(31.372549%, 5.882353%, 15.294118%)" stroke-opacity="1" stroke-miterlimit="10" d="M 219.617188 100.253906 L 219.132812 100.4375 L 214.636719 102.867188 L 209.65625 103.980469 L 204.675781 105.339844 L 204.492188 105.421875 L 199.691406 109.949219 L 194.710938 110.039062 L 189.730469 109.445312 L 184.746094 109.730469 L 183.210938 110.402344 L 179.765625 113.296875 L 176.777344 115.382812 L 174.785156 117.332031 L 173.546875 120.367188 L 174.785156 123.664062 L 176.011719 125.347656 L 179.765625 129.671875 L 180.480469 130.328125 L 184.421875 135.3125 L 184.746094 135.609375 L 189.730469 139.71875 L 190.65625 140.292969 L 194.710938 142.773438 L 197.171875 145.273438 L 199.691406 147.121094 L 204.675781 150.136719 L 205.011719 150.253906 L 209.65625 151.617188 L 214.636719 153.117188 L 217.027344 155.238281 L 219.617188 156.75 L 224.601562 157.457031 L 228.265625 160.21875 L 229.582031 161.386719 L 234.5625 163.460938 L 239.546875 164.683594 L 241.082031 165.199219 L 244.527344 166.285156 L 249.507812 169.324219 L 254.492188 169.628906 L 255.90625 170.183594 L 259.472656 171.476562 L 264.453125 172.722656 L 268.691406 175.164062 L 269.4375 175.738281 L 274.417969 177.453125 L 279.398438 178.667969 L 283.964844 180.144531 L 284.382812 180.292969 L 289.363281 182.390625 L 294.34375 184.445312 L 295.929688 185.128906 L 299.324219 186.574219 L 304.308594 188.925781 L 306.195312 190.109375 L 309.289062 191.039062 L 314.269531 191.675781 L 319.253906 191.226562 L 324.234375 190.308594 L 324.710938 190.109375 L 329.214844 186.292969 L 330.617188 185.128906 L 333.199219 180.144531 L 334.199219 177.890625 L 335.527344 175.164062 L 335.566406 170.183594 L 335.976562 165.199219 L 334.199219 161.894531 L 333.414062 160.21875 L 331.738281 155.238281 L 329.214844 151.835938 L 328.066406 150.253906 L 324.585938 145.273438 L 324.234375 145.011719 L 319.253906 141.53125 L 317.039062 140.292969 L 314.269531 138.339844 L 309.347656 135.3125 L 309.289062 135.273438 L 304.308594 132.699219 L 300.875 130.328125 L 299.324219 129.117188 L 294.34375 127.738281 L 289.363281 127.050781 L 287.070312 125.347656 L 284.382812 123.511719 L 279.398438 123.773438 L 274.417969 121.265625 L 270.132812 120.367188 L 269.4375 120.214844 L 264.453125 117.296875 L 259.472656 116.039062 L 258.128906 115.382812 L 254.492188 112.425781 L 251.25 110.402344 L 249.507812 109.628906 L 244.527344 109.144531 L 239.546875 107.761719 L 235.476562 105.421875 L 234.5625 104.671875 L 229.582031 101.425781 L 224.601562 100.914062 L 222.476562 100.4375 Z M 224.601562 110.128906 L 219.617188 110.171875 L 218.566406 110.402344 L 214.636719 111.441406 L 209.65625 110.722656 L 208.738281 110.402344 L 204.675781 109.789062 L 203.996094 110.402344 L 199.691406 114.773438 L 196.074219 115.382812 L 194.710938 116.75 L 191.09375 120.367188 L 189.730469 122.21875 L 187.136719 125.347656 L 186.71875 130.328125 L 189.730469 133.652344 L 190.914062 135.3125 L 194.710938 137.472656 L 198.78125 140.292969 L 199.691406 141.230469 L 204.675781 145.082031 L 204.878906 145.273438 L 209.65625 147.019531 L 214.636719 148.304688 L 219.617188 149.4375 L 221.402344 150.253906 L 224.601562 152.003906 L 229.582031 155.03125 L 229.84375 155.238281 L 234.5625 158.3125 L 239.546875 159.773438 L 241.011719 160.21875 L 244.527344 160.902344 L 249.507812 164.242188 L 251.417969 165.199219 L 254.492188 166.289062 L 259.472656 168.171875 L 264.453125 169.980469 L 264.863281 170.183594 L 269.4375 172.027344 L 274.417969 174.765625 L 275.722656 175.164062 L 279.398438 175.945312 L 284.382812 178 L 289.226562 180.144531 L 289.363281 180.203125 L 294.34375 182.84375 L 299.324219 184.9375 L 300.101562 185.128906 L 304.308594 186.292969 L 309.289062 189.261719 L 312.378906 190.109375 L 314.269531 190.328125 L 316.445312 190.109375 L 319.253906 189.714844 L 324.234375 188.363281 L 327.867188 185.128906 L 329.214844 183.382812 L 331.300781 180.144531 L 333.277344 175.164062 L 333.238281 170.183594 L 333.828125 165.199219 L 331.613281 160.21875 L 329.714844 155.238281 L 329.214844 154.5625 L 326.085938 150.253906 L 324.234375 147.714844 L 321.5625 145.273438 L 319.253906 143.636719 L 314.269531 140.925781 L 312.90625 140.292969 L 309.289062 138.21875 L 304.308594 135.863281 L 300.84375 135.3125 L 299.324219 134.867188 L 294.34375 131.128906 L 289.363281 130.628906 L 286.992188 130.328125 L 284.382812 129.546875 L 279.398438 127.960938 L 274.417969 125.363281 L 274.382812 125.347656 L 269.4375 123.480469 L 264.453125 122.214844 L 259.875 120.367188 L 259.472656 120.238281 L 254.492188 119.242188 L 249.507812 119.050781 L 244.527344 119.6875 L 239.546875 119.277344 L 236.667969 115.382812 L 234.5625 113.746094 L 229.582031 113.039062 L 225.238281 110.402344 Z M 224.601562 110.128906 "/>
<path fill-rule="evenodd" fill="rgb(74.901961%, 74.901961%, 74.901961%)" fill-opacity="1" stroke-width="0.525" stroke-linecap="round" stroke-linejoin="round" stroke="rgb(31.372549%, 5.882353%, 15.294118%)" stroke-opacity="1" stroke-miterlimit="10" d="M 224.601562 110.128906 L 219.617188 110.171875 L 218.566406 110.402344 L 214.636719 111.441406 L 209.65625 110.722656 L 208.738281 110.402344 L 204.675781 109.789062 L 203.996094 110.402344 L 199.691406 114.773438 L 196.074219 115.382812 L 194.710938 116.75 L 191.09375 120.367188 L 189.730469 122.21875 L 187.136719 125.347656 L 186.71875 130.328125 L 189.730469 133.652344 L 190.914062 135.3125 L 194.710938 137.472656 L 198.78125 140.292969 L 199.691406 141.230469 L 204.675781 145.082031 L 204.878906 145.273438 L 209.65625 147.019531 L 214.636719 148.304688 L 219.617188 149.4375 L 221.402344 150.253906 L 224.601562 152.003906 L 229.582031 155.03125 L 229.84375 155.238281 L 234.5625 158.3125 L 239.546875 159.773438 L 241.011719 160.21875 L 244.527344 160.902344 L 249.507812 164.242188 L 251.417969 165.199219 L 254.492188 166.289062 L 259.472656 168.171875 L 264.453125 169.980469 L 264.863281 170.183594 L 269.4375 172.027344 L 274.417969 174.765625 L 275.722656 175.164062 L 279.398438 175.945312 L 284.382812 178 L 289.226562 180.144531 L 289.363281 180.203125 L 294.34375 182.84375 L 299.324219 184.9375 L 300.101562 185.128906 L 304.308594 186.292969 L 309.289062 189.261719 L 312.378906 190.109375 L 314.269531 190.328125 L 316.445312 190.109375 L 319.253906 189.714844 L 324.234375 188.363281 L 327.867188 185.128906 L 329.214844 183.382812 L 331.300781 180.144531 L 333.277344 175.164062 L 333.238281 170.183594 L 333.828125 165.199219 L 331.613281 160.21875 L 329.714844 155.238281 L 329.214844 154.5625 L 326.085938 150.253906 L 324.234375 147.714844 L 321.5625 145.273438 L 319.253906 143.636719 L 314.269531 140.925781 L 312.90625 140.292969 L 309.289062 138.21875 L 304.308594 135.863281 L 300.84375 135.3125 L 299.324219 134.867188 L 294.34375 131.128906 L 289.363281 130.628906 L 286.992188 130.328125 L 284.382812 129.546875 L 279.398438 127.960938 L 274.417969 125.363281 L 274.382812 125.347656 L 269.4375 123.480469 L 264.453125 122.214844 L 259.875 120.367188 L 259.472656 120.238281 L 254.492188 119.242188 L 249.507812 119.050781 L 244.527344 119.6875 L 239.546875 119.277344 L 236.667969 115.382812 L 234.5625 113.746094 L 229.582031 113.039062 L 225.238281 110.402344 Z M 274.417969 129.777344 L 271.910156 130.328125 L 269.4375 131.171875 L 267.265625 130.328125 L 264.453125 128.964844 L 259.472656 127.203125 L 254.492188 127.339844 L 249.507812 128.207031 L 244.527344 129.847656 L 239.546875 129.902344 L 238.992188 130.328125 L 234.617188 135.3125 L 234.5625 135.332031 L 231.222656 140.292969 L 232.023438 145.273438 L 234.5625 147.152344 L 239.546875 149.710938 L 240.796875 150.253906 L 244.527344 153.683594 L 245.351562 155.238281 L 249.507812 158.691406 L 254.355469 160.21875 L 254.492188 160.25 L 259.472656 163.136719 L 263.066406 165.199219 L 264.453125 165.449219 L 269.4375 167.398438 L 273.152344 170.183594 L 274.417969 170.855469 L 279.398438 172.3125 L 283.066406 175.164062 L 284.382812 175.742188 L 289.363281 177.511719 L 292.277344 180.144531 L 294.34375 181.246094 L 299.324219 182.609375 L 304.308594 184.222656 L 307.621094 185.128906 L 309.289062 186.03125 L 314.269531 188.140625 L 319.253906 187.816406 L 324.234375 186.332031 L 325.585938 185.128906 L 329.214844 180.4375 L 329.402344 180.144531 L 330.75 175.164062 L 331.113281 170.183594 L 331.285156 165.199219 L 329.808594 160.21875 L 329.214844 158.707031 L 326.691406 155.238281 L 324.234375 150.664062 L 323.910156 150.253906 L 319.253906 146.222656 L 318.195312 145.273438 L 314.269531 143.304688 L 309.289062 141.222656 L 306.128906 140.292969 L 304.308594 139.648438 L 299.324219 137.703125 L 294.546875 135.3125 L 294.34375 135.152344 L 289.363281 134.6875 L 284.382812 134.265625 L 279.398438 132.644531 L 275.542969 130.328125 Z M 274.417969 129.777344 "/>
<path fill-rule="evenodd" fill="rgb(74.901961%, 74.901961%, 74.901961%)" fill-opacity="1" stroke-width="0.525" stroke-linecap="round" stroke-linejoin="round" stroke="rgb(31.372549%, 5.882353%, 15.294118%)" stroke-opacity="1" stroke-miterlimit="10" d="M 274.417969 129.777344 L 271.910156 130.328125 L 269.4375 131.171875 L 267.265625 130.328125 L 264.453125 128.964844 L 259.472656 127.203125 L 254.492188 127.339844 L 249.507812 128.207031 L 244.527344 129.847656 L 239.546875 129.902344 L 238.992188 130.328125 L 234.617188 135.3125 L 234.5625 135.332031 L 231.222656 140.292969 L 232.023438 145.273438 L 234.5625 147.152344 L 239.546875 149.710938 L 240.796875 150.253906 L 244.527344 153.683594 L 245.351562 155.238281 L 249.507812 158.691406 L 254.355469 160.21875 L 254.492188 160.25 L 259.472656 163.136719 L 263.066406 165.199219 L 264.453125 165.449219 L 269.4375 167.398438 L 273.152344 170.183594 L 274.417969 170.855469 L 279.398438 172.3125 L 283.066406 175.164062 L 284.382812 175.742188 L 289.363281 177.511719 L 292.277344 180.144531 L 294.34375 181.246094 L 299.324219 182.609375 L 304.308594 184.222656 L 307.621094 185.128906 L 309.289062 186.03125 L 314.269531 188.140625 L 319.253906 187.816406 L 324.234375 186.332031 L 325.585938 185.128906 L 329.214844 180.4375 L 329.402344 180.144531 L 330.75 175.164062 L 331.113281 170.183594 L 331.285156 165.199219 L 329.808594 160.21875 L 329.214844 158.707031 L 326.691406 155.238281 L 324.234375 150.664062 L 323.910156 150.253906 L 319.253906 146.222656 L 318.195312 145.273438 L 314.269531 143.304688 L 309.289062 141.222656 L 306.128906 140.292969 L 304.308594 139.648438 L 299.324219 137.703125 L 294.546875 135.3125 L 294.34375 135.152344 L 289.363281 134.6875 L 284.382812 134.265625 L 279.398438 132.644531 L 275.542969 130.328125 Z M 299.324219 140.257812 L 294.34375 139.371094 L 289.363281 138.101562 L 284.382812 138.5625 L 279.398438 139.558594 L 277.519531 140.292969 L 272.539062 145.273438 L 269.4375 148.378906 L 268.527344 150.253906 L 267.675781 155.238281 L 269.4375 158.019531 L 270.792969 160.21875 L 274.417969 162.582031 L 276.976562 165.199219 L 279.398438 166.660156 L 283.636719 170.183594 L 284.382812 170.675781 L 289.363281 174.417969 L 289.851562 175.164062 L 294.34375 179.144531 L 298.539062 180.144531 L 299.324219 180.28125 L 304.308594 182.597656 L 309.289062 183.445312 L 312.859375 185.128906 L 314.269531 185.792969 L 319.253906 185.917969 L 321.769531 185.128906 L 324.234375 182.359375 L 325.558594 180.144531 L 327.714844 175.164062 L 328.820312 170.183594 L 328.636719 165.199219 L 326.882812 160.21875 L 324.234375 156.527344 L 323.234375 155.238281 L 319.253906 150.492188 L 318.894531 150.253906 L 314.269531 146.277344 L 312.398438 145.273438 L 309.289062 144.371094 L 304.308594 142.210938 L 299.410156 140.292969 Z M 299.324219 140.257812 "/>
<path fill-rule="evenodd" fill="rgb(74.901961%, 74.901961%, 74.901961%)" fill-opacity="1" stroke-width="0.525" stroke-linecap="round" stroke-linejoin="round" stroke="rgb(31.372549%, 5.882353%, 15.294118%)" stroke-opacity="1" stroke-miterlimit="10" d="M 299.324219 140.257812 L 294.34375 139.371094 L 289.363281 138.101562 L 284.382812 138.5625 L 279.398438 139.558594 L 277.519531 140.292969 L 272.539062 145.273438 L 269.4375 148.378906 L 268.527344 150.253906 L 267.675781 155.238281 L 269.4375 158.019531 L 270.792969 160.21875 L 274.417969 162.582031 L 276.976562 165.199219 L 279.398438 166.660156 L 283.636719 170.183594 L 284.382812 170.675781 L 289.363281 174.417969 L 289.851562 175.164062 L 294.34375 179.144531 L 298.539062 180.144531 L 299.324219 180.28125 L 304.308594 182.597656 L 309.289062 183.445312 L 312.859375 185.128906 L 314.269531 185.792969 L 319.253906 185.917969 L 321.769531 185.128906 L 324.234375 182.359375 L 325.558594 180.144531 L 327.714844 175.164062 L 328.820312 170.183594 L 328.636719 165.199219 L 326.882812 160.21875 L 324.234375 156.527344 L 323.234375 155.238281 L 319.253906 150.492188 L 318.894531 150.253906 L 314.269531 146.277344 L 312.398438 145.273438 L 309.289062 144.371094 L 304.308594 142.210938 L 299.410156 140.292969 Z M 304.308594 144.519531 L 299.324219 143.429688 L 294.34375 143.316406 L 289.363281 142.648438 L 286.941406 145.273438 L 285.40625 150.253906 L 284.796875 155.238281 L 287.007812 160.21875 L 286.605469 165.199219 L 289.363281 168.539062 L 290.335938 170.183594 L 293.492188 175.164062 L 294.34375 175.921875 L 299.324219 177.636719 L 302.558594 180.144531 L 304.308594 180.972656 L 309.289062 181.109375 L 314.269531 182.351562 L 319.253906 182.101562 L 321.039062 180.144531 L 323.75 175.164062 L 324.234375 173.875 L 325.136719 170.183594 L 325.527344 165.199219 L 324.234375 162.027344 L 323.070312 160.21875 L 319.488281 155.238281 L 319.253906 154.957031 L 314.269531 151.460938 L 311.855469 150.253906 L 309.289062 148.660156 L 305.871094 145.273438 Z M 304.308594 144.519531 "/>
<path fill-rule="evenodd" fill="rgb(74.901961%, 74.901961%, 74.901961%)" fill-opacity="1" stroke-width="0.525" stroke-linecap="round" stroke-linejoin="round" stroke="rgb(31.372549%, 5.882353%, 15.294118%)" stroke-opacity="1" stroke-miterlimit="10" d="M 304.308594 144.519531 L 299.324219 143.429688 L 294.34375 143.316406 L 289.363281 142.648438 L 286.941406 145.273438 L 285.40625 150.253906 L 284.796875 155.238281 L 287.007812 160.21875 L 286.605469 165.199219 L 289.363281 168.539062 L 290.335938 170.183594 L 293.492188 175.164062 L 294.34375 175.921875 L 299.324219 177.636719 L 302.558594 180.144531 L 304.308594 180.972656 L 309.289062 181.109375 L 314.269531 182.351562 L 319.253906 182.101562 L 321.039062 180.144531 L 323.75 175.164062 L 324.234375 173.875 L 325.136719 170.183594 L 325.527344 165.199219 L 324.234375 162.027344 L 323.070312 160.21875 L 319.488281 155.238281 L 319.253906 154.957031 L 314.269531 151.460938 L 311.855469 150.253906 L 309.289062 148.660156 L 305.871094 145.273438 Z M 309.289062 153.25 L 304.308594 151.050781 L 299.324219 151.460938 L 295.449219 155.238281 L 294.34375 157.792969 L 293.613281 160.21875 L 293.488281 165.199219 L 294.34375 169.238281 L 294.660156 170.183594 L 299.324219 174.351562 L 301.613281 175.164062 L 304.308594 175.898438 L 309.289062 175.792969 L 311.910156 175.164062 L 314.269531 171.25 L 314.695312 170.183594 L 317.53125 165.199219 L 316.660156 160.21875 L 314.269531 155.375 L 314.207031 155.238281 Z M 309.289062 153.25 "/>
<path fill-rule="evenodd" fill="rgb(74.901961%, 74.901961%, 74.901961%)" fill-opacity="1" stroke-width="0.525" stroke-linecap="round" stroke-linejoin="round" stroke="rgb(31.372549%, 5.882353%, 15.294118%)" stroke-opacity="1" stroke-miterlimit="10" d="M 309.289062 153.25 L 304.308594 151.050781 L 299.324219 151.460938 L 295.449219 155.238281 L 294.34375 157.792969 L 293.613281 160.21875 L 293.488281 165.199219 L 294.34375 169.238281 L 294.660156 170.183594 L 299.324219 174.351562 L 301.613281 175.164062 L 304.308594 175.898438 L 309.289062 175.792969 L 311.910156 175.164062 L 314.269531 171.25 L 314.695312 170.183594 L 317.53125 165.199219 L 316.660156 160.21875 L 314.269531 155.375 L 314.207031 155.238281 Z M 309.289062 153.25 "/>
</svg>
