<?xml version="1.0" encoding="UTF-8"?>
<svg xmlns="http://www.w3.org/2000/svg" xmlns:xlink="http://www.w3.org/1999/xlink" width="504pt" height="360pt" viewBox="0 0 504 360">
<defs>
<clipPath id="clip-0">
<path clip-rule="nonzero" d="M 7.199219 32.398438 L 496.800781 32.398438 L 496.800781 352.796875 L 7.199219 352.796875 Z M 7.199219 32.398438 "/>
</clipPath>
</defs>
<rect x="-50.4" y="-36" width="604.8" height="432" fill="rgb(100%, 100%, 100%)" fill-opacity="1"/>
<g clip-path="url(#clip-0)">
<path fill-rule="nonzero" fill="rgb(100%, 100%, 100%)" fill-opacity="1" stroke-width="0.75" stroke-linecap="round" stroke-linejoin="round" stroke="rgb(100%, 100%, 100%)" stroke-opacity="1" stroke-miterlimit="10" d="M 7.199219 352.800781 L 496.800781 352.800781 L 496.800781 32.402344 L 7.199219 32.402344 Z M 7.199219 352.800781 "/>
<path fill-rule="nonzero" fill="rgb(98.431373%, 98.431373%, 98.431373%)" fill-opacity="1" d="M 7.199219 352.800781 L 496.800781 352.800781 L 496.800781 32.402344 L 7.199219 32.402344 Z M 7.199219 352.800781 "/>
</g>
<path fill-rule="evenodd" fill="rgb(74.901961%, 74.901961%, 74.901961%)" fill-opacity="1" stroke-width="0.525" stroke-linecap="round" stroke-linejoin="round" stroke="rgb(31.372549%, 5.882353%, 15.294118%)" stroke-opacity="1" stroke-miterlimit="10" d="M 156.917969 69.691406 L 133.726562 69.691406 L 133.726562 74.328125 L 119.8125 74.328125 L 119.8125 78.964844 L 115.175781 78.964844 L 115.175781 83.605469 L 73.433594 83.605469 L 73.433594 78.964844 L 40.964844 78.964844 L 40.964844 116.070312 L 45.605469 116.070312 L 45.605469 139.261719 L 50.242188 139.261719 L 50.242188 157.8125 L 54.878906 157.8125 L 54.878906 167.089844 L 59.519531 167.089844 L 59.519531 176.367188 L 64.15625 176.367188 L 64.15625 185.644531 L 68.792969 185.644531 L 68.792969 194.917969 L 73.433594 194.917969 L 73.433594 199.558594 L 78.070312 199.558594 L 78.070312 204.195312 L 82.707031 204.195312 L 82.707031 208.832031 L 87.347656 208.832031 L 87.347656 213.472656 L 91.984375 213.472656 L 91.984375 218.109375 L 96.621094 218.109375 L 96.621094 222.746094 L 101.261719 222.746094 L 101.261719 227.386719 L 105.898438 227.386719 L 105.898438 232.023438 L 110.539062 232.023438 L 110.539062 236.664062 L 115.175781 236.664062 L 115.175781 241.300781 L 119.8125 241.300781 L 119.8125 245.9375 L 124.453125 245.9375 L 124.453125 250.578125 L 129.089844 250.578125 L 129.089844 255.214844 L 133.726562 255.214844 L 133.726562 264.492188 L 138.367188 264.492188 L 138.367188 269.128906 L 143.003906 269.128906 L 143.003906 273.765625 L 147.640625 273.765625 L 147.640625 278.40625 L 152.28125 278.40625 L 152.28125 283.042969 L 156.917969 283.042969 L 156.917969 287.679688 L 166.195312 287.679688 L 166.195312 292.320312 L 170.832031 292.320312 L 170.832031 296.957031 L 180.109375 296.957031 L 180.109375 301.597656 L 184.746094 301.597656 L 184.746094 306.234375 L 194.023438 306.234375 L 194.023438 310.871094 L 203.300781 310.871094 L 203.300781 315.511719 L 379.546875 315.511719 L 379.546875 310.871094 L 416.652344 310.871094 L 416.652344 306.234375 L 439.84375 306.234375 L 439.84375 301.597656 L 449.121094 301.597656 L 449.121094 296.957031 L 453.757812 296.957031 L 453.757812 292.320312 L 458.394531 292.320312 L 458.394531 283.042969 L 463.035156 283.042969 L 463.035156 245.9375 L 458.394531 245.9375 L 458.394531 232.023438 L 453.757812 232.023438 L 453.757812 222.746094 L 449.121094 222.746094 L 449.121094 218.109375 L 444.480469 218.109375 L 444.480469 208.832031 L 439.84375 208.832031 L 439.84375 204.195312 L 435.207031 204.195312 L 435.207031 199.558594 L 430.566406 199.558594 L 430.566406 194.917969 L 425.929688 194.917969 L 425.929688 190.28125 L 421.292969 190.28125 L 421.292969 185.644531 L 416.652344 185.644531 L 416.652344 181.003906 L 412.015625 181.003906 L 412.015625 176.367188 L 407.378906 176.367188 L 407.378906 171.726562 L 402.738281 171.726562 L 402.738281 167.089844 L 398.101562 167.089844 L 398.101562 162.453125 L 388.824219 162.453125 L 388.824219 157.8125 L 384.1875 157.8125 L 384.1875 153.175781 L 379.546875 153.175781 L 379.546875 143.898438 L 374.910156 143.898438 L 374.910156 139.261719 L 370.273438 139.261719 L 370.273438 134.625 L 365.632812 134.625 L 365.632812 129.984375 L 360.996094 129.984375 L 360.996094 125.347656 L 351.71875 125.347656 L 351.71875 120.710938 L 347.082031 120.710938 L 347.082031 116.070312 L 342.441406 116.070312 L 342.441406 111.433594 L 333.167969 111.433594 L 333.167969 106.792969 L 328.527344 106.792969 L 328.527344 102.15625 L 314.613281 102.15625 L 314.613281 92.878906 L 309.976562 92.878906 L 309.976562 88.242188 L 305.339844 88.242188 L 305.339844 83.605469 L 296.0625 83.605469 L 296.0625 78.964844 L 291.425781 78.964844 L 291.425781 83.605469 L 282.148438 83.605469 L 282.148438 88.242188 L 263.59375 88.242188 L 263.59375 83.605469 L 249.679688 83.605469 L 249.679688 78.964844 L 212.574219 78.964844 L 212.574219 74.328125 L 207.9375 74.328125 L 207.9375 78.964844 L 180.109375 78.964844 L 180.109375 74.328125 L 161.558594 74.328125 L 161.558594 69.691406 Z M 226.492188 91.335938 L 221.851562 90.230469 L 217.214844 90.5625 L 213.734375 92.878906 L 212.574219 93.542969 L 209.097656 97.519531 L 207.9375 99.066406 L 203.300781 99.375 L 198.660156 99.375 L 194.023438 99.066406 L 189.386719 100.609375 L 187.066406 102.15625 L 184.746094 102.929688 L 180.109375 103.085938 L 175.472656 104.476562 L 170.832031 106.792969 L 168.515625 111.433594 L 167.226562 116.070312 L 166.96875 120.710938 L 167.519531 125.347656 L 167.742188 129.984375 L 167.355469 134.625 L 166.195312 139.261719 L 164.648438 143.898438 L 166.195312 148.539062 L 170.832031 148.539062 L 170.832031 153.175781 L 175.472656 157.8125 L 180.109375 157.8125 L 184.746094 160.90625 L 185.675781 162.453125 L 185.675781 167.089844 L 187.066406 171.726562 L 188.226562 176.367188 L 189.386719 178.6875 L 194.023438 183.324219 L 198.660156 185.644531 L 203.300781 187.960938 L 212.574219 187.960938 L 217.214844 185.644531 L 221.851562 185.644531 L 226.492188 190.28125 L 231.128906 190.28125 L 235.765625 194.917969 L 240.40625 197.238281 L 245.042969 197.238281 L 247.363281 194.917969 L 249.679688 193.371094 L 254.320312 192.601562 L 258.957031 193.0625 L 263.59375 193.0625 L 266.6875 194.917969 L 268.234375 196.464844 L 272.871094 197.238281 L 277.507812 197.238281 L 282.148438 198.011719 L 286.785156 198.894531 L 291.425781 198.976562 L 292.582031 199.558594 L 296.0625 202.339844 L 300.699219 203.035156 L 305.339844 204.195312 L 309.976562 205.355469 L 312.296875 204.195312 L 314.613281 203.269531 L 319.253906 203.035156 L 323.890625 199.558594 L 328.527344 199.558594 L 333.167969 196.464844 L 337.804688 191.828125 L 340.125 190.28125 L 342.441406 185.644531 L 341.671875 181.003906 L 341.863281 176.367188 L 341.929688 171.726562 L 342.441406 167.089844 L 345.921875 162.453125 L 345.535156 157.8125 L 342.441406 153.175781 L 341.285156 148.539062 L 337.804688 143.898438 L 336.257812 139.261719 L 334.328125 134.625 L 333.167969 133.464844 L 330.382812 129.984375 L 328.527344 127.667969 L 323.890625 125.347656 L 319.253906 124.1875 L 315.773438 120.710938 L 314.613281 119.550781 L 309.976562 118.390625 L 307.65625 116.070312 L 305.339844 115.144531 L 300.699219 113.75 L 297.609375 111.433594 L 296.0625 110.503906 L 291.425781 109.113281 L 286.785156 106.792969 L 272.871094 106.792969 L 268.234375 105.25 L 263.59375 103.703125 L 258.957031 102.15625 L 254.320312 100.167969 L 249.679688 97.519531 L 240.40625 95.972656 L 235.765625 94.425781 L 231.128906 93.542969 L 228.808594 92.878906 Z M 226.492188 91.335938 "/>
<path fill-rule="evenodd" fill="rgb(74.901961%, 74.901961%, 74.901961%)" fill-opacity="1" stroke-width="0.525" stroke-linecap="round" stroke-linejoin="round" stroke="rgb(31.372549%, 5.882353%, 15.294118%)" stroke-opacity="1" stroke-miterlimit="10" d="M 226.492188 91.335938 L 221.851562 90.230469 L 217.214844 90.5625 L 213.734375 92.878906 L 212.574219 93.542969 L 209.097656 97.519531 L 207.9375 99.066406 L 203.300781 99.375 L 198.660156 99.375 L 194.023438 99.066406 L 189.386719 100.609375 L 187.066406 102.15625 L 184.746094 102.929688 L 180.109375 103.085938 L 175.472656 104.476562 L 170.832031 106.792969 L 168.515625 111.433594 L 167.226562 116.070312 L 166.96875 120.710938 L 167.519531 125.347656 L 167.742188 129.984375 L 167.355469 134.625 L 166.195312 139.261719 L 164.648438 143.898438 L 166.195312 148.539062 L 170.832031 148.539062 L 170.832031 153.175781 L 175.472656 157.8125 L 180.109375 157.8125 L 184.746094 160.90625 L 185.675781 162.453125 L 185.675781 167.089844 L 187.066406 171.726562 L 188.226562 176.367188 L 189.386719 178.6875 L 194.023438 183.324219 L 198.660156 185.644531 L 203.300781 187.960938 L 212.574219 187.960938 L 217.214844 185.644531 L 221.851562 185.644531 L 226.492188 190.28125 L 231.128906 190.28125 L 235.765625 194.917969 L 240.40625 197.238281 L 245.042969 197.238281 L 247.363281 194.917969 L 249.679688 193.371094 L 254.320312 192.601562 L 258.957031 193.0625 L 263.59375 193.0625 L 266.6875 194.917969 L 268.234375 196.464844 L 272.871094 197.238281 L 277.507812 197.238281 L 282.148438 198.011719 L 286.785156 198.894531 L 291.425781 198.976562 L 292.582031 199.558594 L 296.0625 202.339844 L 300.699219 203.035156 L 305.339844 204.195312 L 309.976562 205.355469 L 312.296875 204.195312 L 314.613281 203.269531 L 319.253906 203.035156 L 323.890625 199.558594 L 328.527344 199.558594 L 333.167969 196.464844 L 337.804688 191.828125 L 340.125 190.28125 L 342.441406 185.644531 L 341.671875 181.003906 L 341.863281 176.367188 L 341.929688 171.726562 L 342.441406 167.089844 L 345.921875 162.453125 L 345.535156 157.8125 L 342.441406 153.175781 L 341.285156 148.539062 L 337.804688 143.898438 L 336.257812 139.261719 L 334.328125 134.625 L 333.167969 133.464844 L 330.382812 129.984375 L 328.527344 127.667969 L 323.890625 125.347656 L 319.253906 124.1875 L 315.773438 120.710938 L 314.613281 119.550781 L 309.976562 118.390625 L 307.65625 116.070312 L 305.339844 115.144531 L 300.699219 113.75 L 297.609375 111.433594 L 296.0625 110.503906 L 291.425781 109.113281 L 286.785156 106.792969 L 272.871094 106.792969 L 268.234375 105.25 L 263.59375 103.703125 L 258.957031 102.15625 L 254.320312 100.167969 L 249.679688 97.519531 L 240.40625 95.972656 L 235.765625 94.425781 L 231.128906 93.542969 L 228.808594 92.878906 Z M 221.851562 97.519531 L 217.214844 96.855469 L 216.054688 97.519531 L 212.574219 99.066406 L 210.046875 102.15625 L 208.269531 106.792969 L 207.9375 107.015625 L 203.300781 107.507812 L 200.207031 106.792969 L 198.660156 106.132812 L 194.023438 106.792969 L 189.386719 107.722656 L 184.746094 108.648438 L 180.109375 109.695312 L 176.628906 111.433594 L 175.472656 112.207031 L 172.15625 116.070312 L 170.832031 119.164062 L 170.445312 120.710938 L 170.832031 121.636719 L 172.15625 125.347656 L 172.863281 129.984375 L 174.3125 134.625 L 175.472656 136.167969 L 177.789062 139.261719 L 180.109375 142.355469 L 181.269531 143.898438 L 184.746094 147.875 L 185.675781 148.539062 L 189.386719 152.25 L 190.929688 153.175781 L 194.023438 157.8125 L 198.660156 162.453125 L 203.300781 167.089844 L 207.9375 171.726562 L 212.574219 171.726562 L 217.214844 174.046875 L 221.851562 175.59375 L 224.171875 176.367188 L 226.492188 177.292969 L 231.128906 177.140625 L 235.765625 177.527344 L 240.40625 179.015625 L 245.042969 181.003906 L 249.679688 182.859375 L 254.320312 184.316406 L 258.957031 185.128906 L 260.503906 185.644531 L 263.59375 186.800781 L 268.234375 187.1875 L 272.871094 188.542969 L 277.507812 189.765625 L 282.148438 191.3125 L 286.785156 192.601562 L 291.425781 193.371094 L 296.0625 194.257812 L 298.382812 194.917969 L 300.699219 195.582031 L 305.339844 195.582031 L 309.976562 196.851562 L 314.613281 196.980469 L 319.253906 194.917969 L 323.890625 193.261719 L 327.101562 190.28125 L 328.527344 188.957031 L 333.167969 185.644531 L 335.742188 181.003906 L 336.773438 176.367188 L 337.339844 171.726562 L 337.804688 167.089844 L 337.144531 162.453125 L 335.816406 157.8125 L 334.714844 153.175781 L 333.167969 150.082031 L 332.503906 148.539062 L 328.527344 143.898438 L 323.890625 139.261719 L 319.253906 135.78125 L 318.09375 134.625 L 314.613281 132.304688 L 311.832031 129.984375 L 309.976562 128.660156 L 305.339844 127.335938 L 300.699219 125.347656 L 296.0625 123.027344 L 291.425781 122.035156 L 288.332031 120.710938 L 286.785156 119.78125 L 282.148438 117.925781 L 279.054688 116.070312 L 277.507812 115.492188 L 272.871094 112.980469 L 269.78125 111.433594 L 268.234375 110.917969 L 263.59375 108.902344 L 259.730469 106.792969 L 258.957031 106.332031 L 254.320312 104.476562 L 249.679688 103.085938 L 246.898438 102.15625 L 245.042969 101.230469 L 240.40625 100.222656 L 235.765625 100.09375 L 231.128906 99.066406 L 226.492188 97.980469 Z M 221.851562 97.519531 "/>
<path fill-rule="evenodd" fill="rgb(74.901961%, 74.901961%, 74.901961%)" fill-opacity="1" stroke-width="0.525" stroke-linecap="round" stroke-linejoin="round" stroke="rgb(31.372549%, 5.882353%, 15.294118%)" stroke-opacity="1" stroke-miterlimit="10" d="M 221.851562 97.519531 L 217.214844 96.855469 L 216.054688 97.519531 L 212.574219 99.066406 L 210.046875 102.15625 L 208.269531 106.792969 L 207.9375 107.015625 L 203.300781 107.507812 L 200.207031 106.792969 L 198.660156 106.132812 L 194.023438 106.792969 L 189.386719 107.722656 L 184.746094 108.648438 L 180.109375 109.695312 L 176.628906 111.433594 L 175.472656 112.207031 L 172.15625 116.070312 L 170.832031 119.164062 L 170.445312 120.710938 L 170.832031 121.636719 L 172.15625 125.347656 L 172.863281 129.984375 L 174.3125 134.625 L 175.472656 136.167969 L 177.789062 139.261719 L 180.109375 142.355469 L 181.269531 143.898438 L 184.746094 147.875 L 185.675781 148.539062 L 189.386719 152.25 L 190.929688 153.175781 L 194.023438 157.8125 L 198.660156 162.453125 L 203.300781 167.089844 L 207.9375 171.726562 L 212.574219 171.726562 L 217.214844 174.046875 L 221.851562 175.59375 L 224.171875 176.367188 L 226.492188 177.292969 L 231.128906 177.140625 L 235.765625 177.527344 L 240.40625 179.015625 L 245.042969 181.003906 L 249.679688 182.859375 L 254.320312 184.316406 L 258.957031 185.128906 L 260.503906 185.644531 L 263.59375 186.800781 L 268.234375 187.1875 L 272.871094 188.542969 L 277.507812 189.765625 L 282.148438 191.3125 L 286.785156 192.601562 L 291.425781 193.371094 L 296.0625 194.257812 L 298.382812 194.917969 L 300.699219 195.582031 L 305.339844 195.582031 L 309.976562 196.851562 L 314.613281 196.980469 L 319.253906 194.917969 L 323.890625 193.261719 L 327.101562 190.28125 L 328.527344 188.957031 L 333.167969 185.644531 L 335.742188 181.003906 L 336.773438 176.367188 L 337.339844 171.726562 L 337.804688 167.089844 L 337.144531 162.453125 L 335.816406 157.8125 L 334.714844 153.175781 L 333.167969 150.082031 L 332.503906 148.539062 L 328.527344 143.898438 L 323.890625 139.261719 L 319.253906 135.78125 L 318.09375 134.625 L 314.613281 132.304688 L 311.832031 129.984375 L 309.976562 128.660156 L 305.339844 127.335938 L 300.699219 125.347656 L 296.0625 123.027344 L 291.425781 122.035156 L 288.332031 120.710938 L 286.785156 119.78125 L 282.148438 117.925781 L 279.054688 116.070312 L 277.507812 115.492188 L 272.871094 112.980469 L 269.78125 111.433594 L 268.234375 110.917969 L 263.59375 108.902344 L 259.730469 106.792969 L 258.957031 106.332031 L 254.320312 104.476562 L 249.679688 103.085938 L 246.898438 102.15625 L 245.042969 101.230469 L 240.40625 100.222656 L 235.765625 100.09375 L 231.128906 99.066406 L 226.492188 97.980469 Z M 226.492188 102.15625 L 221.851562 101.3125 L 217.214844 101.640625 L 216.054688 102.15625 L 212.574219 104.144531 L 211.25 106.792969 L 207.9375 109.003906 L 203.300781 110.71875 L 200.980469 111.433594 L 198.660156 112.050781 L 196.34375 111.433594 L 194.023438 110.589844 L 190.929688 111.433594 L 189.386719 111.742188 L 184.746094 112.699219 L 180.109375 114.214844 L 177.789062 116.070312 L 175.472656 119.164062 L 174.542969 120.710938 L 175.140625 125.347656 L 175.472656 129.984375 L 178.421875 134.625 L 180.109375 136.683594 L 182.429688 139.261719 L 184.746094 142.160156 L 186.734375 143.898438 L 189.386719 145.960938 L 191.960938 148.539062 L 194.023438 150.222656 L 198.660156 152.402344 L 199.589844 153.175781 L 203.300781 156.269531 L 205.949219 157.8125 L 207.9375 159.359375 L 211.03125 162.453125 L 212.574219 164 L 217.214844 166.316406 L 218.375 167.089844 L 221.851562 169.078125 L 226.492188 170.402344 L 229.582031 171.726562 L 231.128906 172.242188 L 235.765625 173.121094 L 240.40625 174.046875 L 245.042969 174.433594 L 249.679688 176.367188 L 254.320312 177.914062 L 258.957031 180.230469 L 260.503906 181.003906 L 263.59375 182.035156 L 268.234375 182.859375 L 272.871094 183.789062 L 277.507812 185.179688 L 279.828125 185.644531 L 282.148438 186.222656 L 286.785156 187.1875 L 291.425781 188.625 L 296.0625 189.585938 L 297.328125 190.28125 L 300.699219 192.601562 L 305.339844 193.234375 L 309.976562 193.992188 L 314.613281 193.628906 L 319.253906 192.601562 L 323.890625 190.28125 L 328.527344 185.972656 L 328.992188 185.644531 L 330.847656 181.003906 L 332.394531 176.367188 L 333.167969 171.726562 L 332.835938 167.089844 L 331.777344 162.453125 L 329.855469 157.8125 L 328.527344 154.722656 L 327.757812 153.175781 L 325.050781 148.539062 L 323.890625 147.609375 L 319.253906 144.320312 L 318.671875 143.898438 L 314.613281 139.839844 L 313.6875 139.261719 L 309.976562 137.199219 L 305.339844 134.625 L 300.699219 129.984375 L 296.0625 128.128906 L 291.425781 127.203125 L 287.714844 125.347656 L 286.785156 124.832031 L 282.148438 123.238281 L 277.507812 120.710938 L 272.871094 119.9375 L 268.234375 117 L 266.6875 116.070312 L 263.59375 114.214844 L 258.957031 111.433594 L 254.320312 110.273438 L 252 106.792969 L 249.679688 105.867188 L 245.042969 105.402344 L 240.40625 104.21875 L 235.765625 104.089844 L 231.128906 103.152344 Z M 226.492188 102.15625 "/>
<path fill-rule="evenodd" fill="rgb(74.901961%, 74.901961%, 74.901961%)" fill-opacity="1" stroke-width="0.525" stroke-linecap="round" stroke-linejoin="round" stroke="rgb(31.372549%, 5.882353%, 15.294118%)" stroke-opacity="1" stroke-miterlimit="10" d="M 226.492188 102.15625 L 221.851562 101.3125 L 217.214844 101.640625 L 216.054688 102.15625 L 212.574219 104.144531 L 211.25 106.792969 L 207.9375 109.003906 L 203.300781 110.71875 L 200.980469 111.433594 L 198.660156 112.050781 L 196.34375 111.433594 L 194.023438 110.589844 L 190.929688 111.433594 L 189.386719 111.742188 L 184.746094 112.699219 L 180.109375 114.214844 L 177.789062 116.070312 L 175.472656 119.164062 L 174.542969 120.710938 L 175.140625 125.347656 L 175.472656 129.984375 L 178.421875 134.625 L 180.109375 136.683594 L 182.429688 139.261719 L 184.746094 142.160156 L 186.734375 143.898438 L 189.386719 145.960938 L 191.960938 148.539062 L 194.023438 150.222656 L 198.660156 152.402344 L 199.589844 153.175781 L 203.300781 156.269531 L 205.949219 157.8125 L 207.9375 159.359375 L 211.03125 162.453125 L 212.574219 164 L 217.214844 166.316406 L 218.375 167.089844 L 221.851562 169.078125 L 226.492188 170.402344 L 229.582031 171.726562 L 231.128906 172.242188 L 235.765625 173.121094 L 240.40625 174.046875 L 245.042969 174.433594 L 249.679688 176.367188 L 254.320312 177.914062 L 258.957031 180.230469 L 260.503906 181.003906 L 263.59375 182.035156 L 268.234375 182.859375 L 272.871094 183.789062 L 277.507812 185.179688 L 279.828125 185.644531 L 282.148438 186.222656 L 286.785156 187.1875 L 291.425781 188.625 L 296.0625 189.585938 L 297.328125 190.28125 L 300.699219 192.601562 L 305.339844 193.234375 L 309.976562 193.992188 L 314.613281 193.628906 L 319.253906 192.601562 L 323.890625 190.28125 L 328.527344 185.972656 L 328.992188 185.644531 L 330.847656 181.003906 L 332.394531 176.367188 L 333.167969 171.726562 L 332.835938 167.089844 L 331.777344 162.453125 L 329.855469 157.8125 L 328.527344 154.722656 L 327.757812 153.175781 L 325.050781 148.539062 L 323.890625 147.609375 L 319.253906 144.320312 L 318.671875 143.898438 L 314.613281 139.839844 L 313.6875 139.261719 L 309.976562 137.199219 L 305.339844 134.625 L 300.699219 129.984375 L 296.0625 128.128906 L 291.425781 127.203125 L 287.714844 125.347656 L 286.785156 124.832031 L 282.148438 123.238281 L 277.507812 120.710938 L 272.871094 119.9375 L 268.234375 117 L 266.6875 116.070312 L 263.59375 114.214844 L 258.957031 111.433594 L 254.320312 110.273438 L 252 106.792969 L 249.679688 105.867188 L 245.042969 105.402344 L 240.40625 104.21875 L 235.765625 104.089844 L 231.128906 103.152344 Z M 231.128906 106.132812 L 226.492188 105.953125 L 221.851562 105.402344 L 218.375 106.792969 L 217.214844 107.457031 L 212.574219 109.113281 L 207.9375 110.992188 L 206.90625 111.433594 L 203.300781 114.382812 L 198.660156 114.835938 L 194.023438 114.136719 L 189.386719 114.523438 L 185.519531 116.070312 L 184.746094 116.734375 L 180.109375 119.9375 L 179.53125 120.710938 L 178.324219 125.347656 L 179.644531 129.984375 L 180.109375 130.757812 L 183.421875 134.625 L 184.746094 136.167969 L 187.398438 139.261719 L 189.386719 141 L 192.285156 143.898438 L 194.023438 145.640625 L 197.886719 148.539062 L 198.660156 148.925781 L 203.300781 152.511719 L 204.226562 153.175781 L 207.9375 155.03125 L 212.574219 157.152344 L 214.894531 157.8125 L 217.214844 158.742188 L 221.851562 160.90625 L 226.492188 161.789062 L 227.261719 162.453125 L 231.128906 166.316406 L 233.449219 167.089844 L 235.765625 167.753906 L 240.40625 169.078125 L 245.042969 170.402344 L 247.363281 171.726562 L 249.679688 172.570312 L 254.320312 172.757812 L 258.957031 174.511719 L 263.59375 175.4375 L 265.140625 176.367188 L 268.234375 178.429688 L 272.871094 179.613281 L 277.507812 181.003906 L 282.148438 182.269531 L 286.785156 183.65625 L 291.425781 185.644531 L 296.0625 187.5 L 300.699219 189.894531 L 301.472656 190.28125 L 305.339844 191.335938 L 309.976562 191.902344 L 314.613281 191.3125 L 319.253906 190.28125 L 323.890625 185.644531 L 327.078125 181.003906 L 328.527344 177.140625 L 328.914062 176.367188 L 329.371094 171.726562 L 329.855469 167.089844 L 328.527344 164 L 327.949219 162.453125 L 326.210938 157.8125 L 323.890625 154.863281 L 322.652344 153.175781 L 319.769531 148.539062 L 319.253906 148.117188 L 314.613281 144.613281 L 313.457031 143.898438 L 309.976562 141.371094 L 306.664062 139.261719 L 305.339844 138.417969 L 300.699219 136.308594 L 298.050781 134.625 L 296.0625 132.882812 L 291.425781 131.53125 L 286.785156 130.566406 L 286.011719 129.984375 L 282.148438 127.410156 L 277.507812 126.894531 L 274.417969 125.347656 L 272.871094 124.832031 L 268.234375 124.023438 L 263.59375 121.371094 L 261.277344 120.710938 L 258.957031 119.9375 L 254.320312 117 L 252.773438 116.070312 L 249.679688 114.523438 L 245.042969 113.75 L 240.40625 112.359375 L 239.246094 111.433594 L 235.765625 108.648438 L 233.449219 106.792969 Z M 231.128906 106.132812 "/>
<path fill-rule="evenodd" fill="rgb(74.901961%, 74.901961%, 74.901961%)" fill-opacity="1" stroke-width="0.525" stroke-linecap="round" stroke-linejoin="round" stroke="rgb(31.372549%, 5.882353%, 15.294118%)" stroke-opacity="1" stroke-miterlimit="10" d="M 231.128906 106.132812 L 226.492188 105.953125 L 221.851562 105.402344 L 218.375 106.792969 L 217.214844 107.457031 L 212.574219 109.113281 L 207.9375 110.992188 L 206.90625 111.433594 L 203.300781 114.382812 L 198.660156 114.835938 L 194.023438 114.136719 L 189.386719 114.523438 L 185.519531 116.070312 L 184.746094 116.734375 L 180.109375 119.9375 L 179.53125 120.710938 L 178.324219 125.347656 L 179.644531 129.984375 L 180.109375 130.757812 L 183.421875 134.625 L 184.746094 136.167969 L 187.398438 139.261719 L 189.386719 141 L 192.285156 143.898438 L 194.023438 145.640625 L 197.886719 148.539062 L 198.660156 148.925781 L 203.300781 152.511719 L 204.226562 153.175781 L 207.9375 155.03125 L 212.574219 157.152344 L 214.894531 157.8125 L 217.214844 158.742188 L 221.851562 160.90625 L 226.492188 161.789062 L 227.261719 162.453125 L 231.128906 166.316406 L 233.449219 167.089844 L 235.765625 167.753906 L 240.40625 169.078125 L 245.042969 170.402344 L 247.363281 171.726562 L 249.679688 172.570312 L 254.320312 172.757812 L 258.957031 174.511719 L 263.59375 175.4375 L 265.140625 176.367188 L 268.234375 178.429688 L 272.871094 179.613281 L 277.507812 181.003906 L 282.148438 182.269531 L 286.785156 183.65625 L 291.425781 185.644531 L 296.0625 187.5 L 300.699219 189.894531 L 301.472656 190.28125 L 305.339844 191.335938 L 309.976562 191.902344 L 314.613281 191.3125 L 319.253906 190.28125 L 323.890625 185.644531 L 327.078125 181.003906 L 328.527344 177.140625 L 328.914062 176.367188 L 329.371094 171.726562 L 329.855469 167.089844 L 328.527344 164 L 327.949219 162.453125 L 326.210938 157.8125 L 323.890625 154.863281 L 322.652344 153.175781 L 319.769531 148.539062 L 319.253906 148.117188 L 314.613281 144.613281 L 313.457031 143.898438 L 309.976562 141.371094 L 306.664062 139.261719 L 305.339844 138.417969 L 300.699219 136.308594 L 298.050781 134.625 L 296.0625 132.882812 L 291.425781 131.53125 L 286.785156 130.566406 L 286.011719 129.984375 L 282.148438 127.410156 L 277.507812 126.894531 L 274.417969 125.347656 L 272.871094 124.832031 L 268.234375 124.023438 L 263.59375 121.371094 L 261.277344 120.710938 L 258.957031 119.9375 L 254.320312 117 L 252.773438 116.070312 L 249.679688 114.523438 L 245.042969 113.75 L 240.40625 112.359375 L 239.246094 111.433594 L 235.765625 108.648438 L 233.449219 106.792969 Z M 207.9375 116.070312 L 203.300781 120.710938 L 198.660156 125.347656 L 194.023438 129.984375 L 192.476562 134.625 L 194.023438 136.941406 L 195.570312 139.261719 L 198.660156 141.117188 L 202.140625 143.898438 L 203.300781 145.058594 L 207.9375 148.539062 L 212.574219 150.394531 L 217.214844 152.015625 L 221.851562 153.175781 L 226.492188 155.03125 L 229.96875 157.8125 L 231.128906 158.742188 L 235.765625 161.292969 L 240.40625 162.453125 L 245.042969 163.378906 L 249.679688 166.316406 L 251.226562 167.089844 L 254.320312 168.121094 L 258.957031 169.988281 L 263.59375 171.066406 L 265.140625 171.726562 L 268.234375 173.054688 L 272.871094 175.207031 L 275.964844 176.367188 L 277.507812 176.832031 L 282.148438 178.6875 L 286.785156 180.582031 L 287.25 181.003906 L 291.425781 183.324219 L 296.0625 185.257812 L 297.609375 185.644531 L 300.699219 186.414062 L 305.339844 188.425781 L 309.976562 189.566406 L 314.613281 188.917969 L 319.253906 187.300781 L 320.910156 185.644531 L 323.890625 181.847656 L 324.46875 181.003906 L 325.675781 176.367188 L 326.363281 171.726562 L 326.746094 167.089844 L 325.339844 162.453125 L 323.890625 159.140625 L 322.964844 157.8125 L 319.871094 153.175781 L 319.253906 152.25 L 315.542969 148.539062 L 314.613281 147.824219 L 309.976562 145.164062 L 307.65625 143.898438 L 305.339844 142.507812 L 300.699219 140.585938 L 296.0625 139.726562 L 295.132812 139.261719 L 291.425781 136.609375 L 286.785156 135.949219 L 282.148438 135.285156 L 280.601562 134.625 L 277.507812 133.296875 L 272.871094 131.3125 L 270.550781 129.984375 L 268.234375 128.953125 L 263.59375 128.128906 L 258.957031 126.507812 L 254.320312 125.347656 L 249.679688 125.347656 L 245.042969 126.507812 L 240.40625 126.507812 L 238.085938 125.347656 L 235.765625 120.710938 L 226.492188 120.710938 L 221.851562 118.390625 L 217.214844 118.390625 L 212.574219 117.617188 Z M 207.9375 116.070312 "/>
<path fill-rule="evenodd" fill="rgb(74.901961%, 74.901961%, 74.901961%)" fill-opacity="1" stroke-width="0.525" stroke-linecap="round" stroke-linejoin="round" stroke="rgb(31.372549%, 5.882353%, 15.294118%)" stroke-opacity="1" stroke-miterlimit="10" d="M 207.9375 116.070312 L 203.300781 120.710938 L 198.660156 125.347656 L 194.023438 129.984375 L 192.476562 134.625 L 194.023438 136.941406 L 195.570312 139.261719 L 198.660156 141.117188 L 202.140625 143.898438 L 203.300781 145.058594 L 207.9375 148.539062 L 212.574219 150.394531 L 217.214844 152.015625 L 221.851562 153.175781 L 226.492188 155.03125 L 229.96875 157.8125 L 231.128906 158.742188 L 235.765625 161.292969 L 240.40625 162.453125 L 245.042969 163.378906 L 249.679688 166.316406 L 251.226562 167.089844 L 254.320312 168.121094 L 258.957031 169.988281 L 263.59375 171.066406 L 265.140625 171.726562 L 268.234375 173.054688 L 272.871094 175.207031 L 275.964844 176.367188 L 277.507812 176.832031 L 282.148438 178.6875 L 286.785156 180.582031 L 287.25 181.003906 L 291.425781 183.324219 L 296.0625 185.257812 L 297.609375 185.644531 L 300.699219 186.414062 L 305.339844 188.425781 L 309.976562 189.566406 L 314.613281 188.917969 L 319.253906 187.300781 L 320.910156 185.644531 L 323.890625 181.847656 L 324.46875 181.003906 L 325.675781 176.367188 L 326.363281 171.726562 L 326.746094 167.089844 L 325.339844 162.453125 L 323.890625 159.140625 L 322.964844 157.8125 L 319.871094 153.175781 L 319.253906 152.25 L 315.542969 148.539062 L 314.613281 147.824219 L 309.976562 145.164062 L 307.65625 143.898438 L 305.339844 142.507812 L 300.699219 140.585938 L 296.0625 139.726562 L 295.132812 139.261719 L 291.425781 136.609375 L 286.785156 135.949219 L 282.148438 135.285156 L 280.601562 134.625 L 277.507812 133.296875 L 272.871094 131.3125 L 270.550781 129.984375 L 268.234375 128.953125 L 263.59375 128.128906 L 258.957031 126.507812 L 254.320312 125.347656 L 249.679688 125.347656 L 245.042969 126.507812 L 240.40625 126.507812 L 238.085938 125.347656 L 235.765625 120.710938 L 226.492188 120.710938 L 221.851562 118.390625 L 217.214844 118.390625 L 212.574219 117.617188 Z M 268.234375 139.261719 L 249.679688 139.261719 L 249.679688 148.539062 L 254.320312 153.175781 L 254.320312 157.8125 L 258.957031 157.8125 L 263.59375 162.453125 L 268.234375 165.542969 L 270.550781 167.089844 L 272.871094 168.25 L 277.507812 170.570312 L 279.054688 171.726562 L 282.148438 173.582031 L 285.625 176.367188 L 286.785156 176.789062 L 291.425781 181.003906 L 296.0625 181.777344 L 300.699219 183.613281 L 305.339844 184.484375 L 308.121094 185.644531 L 309.976562 186.355469 L 314.613281 186.460938 L 316.601562 185.644531 L 319.253906 181.933594 L 319.832031 181.003906 L 321.570312 176.367188 L 323.3125 171.726562 L 323.375 167.089844 L 321.828125 162.453125 L 319.253906 158.585938 L 318.589844 157.8125 L 314.613281 153.175781 L 309.976562 149.464844 L 308.429688 148.539062 L 305.339844 147.378906 L 300.699219 145.328125 L 296.0625 143.898438 L 291.425781 142.574219 L 286.785156 141.324219 L 282.148438 141.25 L 277.507812 141.582031 L 274.417969 139.261719 L 272.871094 138.335938 Z M 268.234375 139.261719 "/>
<path fill-rule="evenodd" fill="rgb(74.901961%, 74.901961%, 74.901961%)" fill-opacity="1" stroke-width="0.525" stroke-linecap="round" stroke-linejoin="round" stroke="rgb(31.372549%, 5.882353%, 15.294118%)" stroke-opacity="1" stroke-miterlimit="10" d="M 268.234375 139.261719 L 249.679688 139.261719 L 249.679688 148.539062 L 254.320312 153.175781 L 254.320312 157.8125 L 258.957031 157.8125 L 263.59375 162.453125 L 268.234375 165.542969 L 270.550781 167.089844 L 272.871094 168.25 L 277.507812 170.570312 L 279.054688 171.726562 L 282.148438 173.582031 L 285.625 176.367188 L 286.785156 176.789062 L 291.425781 181.003906 L 296.0625 181.777344 L 300.699219 183.613281 L 305.339844 184.484375 L 308.121094 185.644531 L 309.976562 186.355469 L 314.613281 186.460938 L 316.601562 185.644531 L 319.253906 181.933594 L 319.832031 181.003906 L 321.570312 176.367188 L 323.3125 171.726562 L 323.375 167.089844 L 321.828125 162.453125 L 319.253906 158.585938 L 318.589844 157.8125 L 314.613281 153.175781 L 309.976562 149.464844 L 308.429688 148.539062 L 305.339844 147.378906 L 300.699219 145.328125 L 296.0625 143.898438 L 291.425781 142.574219 L 286.785156 141.324219 L 282.148438 141.25 L 277.507812 141.582031 L 274.417969 139.261719 L 272.871094 138.335938 Z M 296.0625 148.074219 L 291.425781 148.539062 L 291.425781 153.175781 L 288.332031 157.8125 L 286.785156 162.453125 L 285.859375 167.089844 L 286.785156 168.25 L 289.105469 171.726562 L 291.425781 175.207031 L 292.96875 176.367188 L 296.0625 177.398438 L 300.699219 181.003906 L 305.339844 181.003906 L 309.976562 181.585938 L 312.296875 181.003906 L 314.613281 179.457031 L 315.941406 176.367188 L 316.933594 171.726562 L 318.09375 167.089844 L 316.160156 162.453125 L 314.613281 160.597656 L 312.296875 157.8125 L 309.976562 156.074219 L 305.339844 153.175781 L 300.699219 148.539062 Z M 296.0625 148.074219 "/>
<path fill-rule="evenodd" fill="rgb(74.901961%, 74.901961%, 74.901961%)" fill-opacity="1" stroke-width="0.525" stroke-linecap="round" stroke-linejoin="round" stroke="rgb(31.372549%, 5.882353%, 15.294118%)" stroke-opacity="1" stroke-miterlimit="10" d="M 296.0625 148.074219 L 291.425781 148.539062 L 291.425781 153.175781 L 288.332031 157.8125 L 286.785156 162.453125 L 285.859375 167.089844 L 286.785156 168.25 L 289.105469 171.726562 L 291.425781 175.207031 L 292.96875 176.367188 L 296.0625 177.398438 L 300.699219 181.003906 L 305.339844 181.003906 L 309.976562 181.585938 L 312.296875 181.003906 L 314.613281 179.457031 L 315.941406 176.367188 L 316.933594 171.726562 L 318.09375 167.089844 L 316.160156 162.453125 L 314.613281 160.597656 L 312.296875 157.8125 L 309.976562 156.074219 L 305.339844 153.175781 L 300.699219 148.539062 Z M 296.0625 148.074219 "/>
</svg>
